<svg width="60" height="60" viewBox="0 0 60 60" fill="none" xmlns="http://www.w3.org/2000/svg">
<path fill-rule="evenodd" clip-rule="evenodd" d="M58 30C58 14.536 45.464 2 30 2C14.536 2 2 14.536 2 30C2 45.464 14.536 58 30 58C45.464 58 58 45.464 58 30ZM30 60C46.5685 60 60 46.5685 60 30C60 13.4315 46.5685 -1.17422e-06 30 -2.62268e-06C13.4315 -4.07115e-06 4.07115e-06 13.4315 2.62268e-06 30C1.17422e-06 46.5685 13.4315 60 30 60Z" fill="#57504C"/>
<path fill-rule="evenodd" clip-rule="evenodd" d="M36 30.0002C36 30.5525 35.5523 31.0002 35 31.0002H26.4142L31.0711 35.657C31.4616 36.0476 31.4616 36.6807 31.0711 37.0713C30.6805 37.4618 30.0474 37.4618 29.6569 37.0713L23.2929 30.7073C22.9024 30.3168 22.9024 29.6836 23.2929 29.2931L29.6569 22.9291C30.0474 22.5386 30.6805 22.5386 31.0711 22.9291C31.4616 23.3196 31.4616 23.9528 31.0711 24.3433L26.4142 29.0002H35C35.5523 29.0002 36 29.4479 36 30.0002Z" fill="#57504C"/>
</svg>
