<svg width="10" height="6" viewBox="0 0 10 6" fill="none" xmlns="http://www.w3.org/2000/svg">
<path fill-rule="evenodd" clip-rule="evenodd" d="M0.292893 0.292893C0.683417 -0.0976311 1.31658 -0.0976311 1.70711 0.292893L5 3.58579L8.29245 0.293338L9 1L9.70708 1.70713L9.66817 1.74604C9.6569 1.75731 9.66194 1.75228 9.66651 1.7477L9.62395 1.79026C9.59577 1.81845 9.61018 1.80404 9.62265 1.79156C9.63406 1.78015 9.64385 1.77036 9.61807 1.79614C9.6132 1.80101 9.61171 1.8025 9.61185 1.80236L9.32025 2.09396C9.32742 2.08679 9.33359 2.08063 9.31356 2.10065L6.26688 5.14734C6.23578 5.17843 6.25199 5.16222 6.26067 5.15354L5.89398 5.52024C5.8602 5.55401 5.90871 5.5055 5.87496 5.53925L5.8059 5.60832C5.8059 5.60832 5.82327 5.59094 5.79961 5.6146L5.70711 5.70711C5.31658 6.09763 4.68342 6.09763 4.29289 5.70711L0.292893 1.70711C-0.0976311 1.31658 -0.0976311 0.683417 0.292893 0.292893ZM9 1L9.70708 1.70713C10.0976 1.31661 10.0976 0.683417 9.70711 0.292893C9.31658 -0.0976311 8.68297 -0.0971863 8.29245 0.293338L9 1Z" fill="#FFFDF8"/>
</svg>
