<svg width="60" height="60" viewBox="0 0 60 60" fill="none" xmlns="http://www.w3.org/2000/svg">
<path fill-rule="evenodd" clip-rule="evenodd" d="M2 30C2 45.464 14.536 58 30 58C45.464 58 58 45.464 58 30C58 14.536 45.464 2 30 2C14.536 2 2 14.536 2 30ZM30 0C13.4315 0 0 13.4315 0 30C0 46.5685 13.4315 60 30 60C46.5685 60 60 46.5685 60 30C60 13.4315 46.5685 0 30 0Z" fill="#57504C"/>
<path fill-rule="evenodd" clip-rule="evenodd" d="M24 29.9998C24 29.4475 24.4477 28.9998 25 28.9998L33.5858 28.9998L28.9289 24.343C28.5384 23.9524 28.5384 23.3193 28.9289 22.9287C29.3195 22.5382 29.9526 22.5382 30.3431 22.9287L36.7071 29.2927C37.0976 29.6832 37.0976 30.3164 36.7071 30.7069L30.3431 37.0709C29.9526 37.4614 29.3195 37.4614 28.9289 37.0709C28.5384 36.6804 28.5384 36.0472 28.9289 35.6567L33.5858 30.9998L25 30.9998C24.4477 30.9998 24 30.5521 24 29.9998Z" fill="#57504C"/>
</svg>
