<svg width="60" height="60" viewBox="0 0 60 60" fill="none" xmlns="http://www.w3.org/2000/svg">
<path fill-rule="evenodd" clip-rule="evenodd" d="M58 30C58 14.536 45.464 2 30 2C14.536 2 2 14.536 2 30C2 45.464 14.536 58 30 58C45.464 58 58 45.464 58 30ZM30 60C46.5685 60 60 46.5685 60 30C60 13.4315 46.5685 -1.17422e-06 30 -2.62268e-06C13.4315 -4.07115e-06 4.07115e-06 13.4315 2.62268e-06 30C1.17422e-06 46.5685 13.4315 60 30 60Z" fill="#D8B56A"/>
<path fill-rule="evenodd" clip-rule="evenodd" d="M36 29.9997C36 30.552 35.5523 30.9997 35 30.9997H26.4142L31.0711 35.6566C31.4616 36.0471 31.4616 36.6802 31.0711 37.0708C30.6805 37.4613 30.0474 37.4613 29.6569 37.0708L23.2929 30.7068C22.9024 30.3163 22.9024 29.6831 23.2929 29.2926L29.6569 22.9286C30.0474 22.5381 30.6805 22.5381 31.0711 22.9286C31.4616 23.3192 31.4616 23.9523 31.0711 24.3428L26.4142 28.9997H35C35.5523 28.9997 36 29.4474 36 29.9997Z" fill="#D8B56A"/>
</svg>
