<svg width="34" height="26" viewBox="0 0 34 26" fill="none" xmlns="http://www.w3.org/2000/svg">
<path d="M32.3052 25.1433H9.56775C8.63063 25.1433 7.87109 24.3838 7.87109 23.4467C7.87109 22.5095 8.63063 21.75 9.56775 21.75H32.3047C33.2418 21.75 34.0013 22.5095 34.0013 23.4467C34.0013 24.3838 33.2424 25.1433 32.3052 25.1433Z" fill="white"/>
<path d="M32.3052 14.4949H9.56775C8.63063 14.4949 7.87109 13.7353 7.87109 12.7982C7.87109 11.8611 8.63063 11.1016 9.56775 11.1016H32.3047C33.2418 11.1016 34.0013 11.8611 34.0013 12.7982C34.0019 13.7353 33.2424 14.4949 32.3052 14.4949Z" fill="white"/>
<path d="M32.3052 3.84253H9.56775C8.63063 3.84253 7.87109 3.083 7.87109 2.14588C7.87109 1.20876 8.63063 0.449219 9.56775 0.449219H32.3047C33.2418 0.449219 34.0013 1.20876 34.0013 2.14588C34.0013 3.083 33.2424 3.84253 32.3052 3.84253Z" fill="white"/>
<path d="M2.27861 4.55722C3.53705 4.55722 4.55722 3.53705 4.55722 2.27861C4.55722 1.02017 3.53705 0 2.27861 0C1.02017 0 0 1.02017 0 2.27861C0 3.53705 1.02017 4.55722 2.27861 4.55722Z" fill="white"/>
<path d="M2.27861 15.0768C3.53705 15.0768 4.55722 14.0566 4.55722 12.7981C4.55722 11.5397 3.53705 10.5195 2.27861 10.5195C1.02017 10.5195 0 11.5397 0 12.7981C0 14.0566 1.02017 15.0768 2.27861 15.0768Z" fill="white"/>
<path d="M2.27861 25.5963C3.53705 25.5963 4.55722 24.5761 4.55722 23.3177C4.55722 22.0592 3.53705 21.0391 2.27861 21.0391C1.02017 21.0391 0 22.0592 0 23.3177C0 24.5761 1.02017 25.5963 2.27861 25.5963Z" fill="white"/>
</svg>
