<svg width="133" height="119" viewBox="0 0 133 119" fill="none" xmlns="http://www.w3.org/2000/svg">
<path d="M118 100.7C117.9 100.6 117.8 100.6 117.7 100.5C114.4 98.4 112.4 94.6 112.4 90.5C112.4 86.7 112.7 80.3 107.8 74.2C106.8 72.9 106.8 71.2 107.8 69.9C112.8 63.7 112.4 57.4 112.4 52.1C115.1 51.7 117.1 49.5 117.1 46.7V35C117.1 32 114.7 29.6 111.7 29.6H106.4C96.6 17 78.3 0 69.3 0C62.9 0 52.9 8.3 47.5 13.2C41.5 18.7 35.4 18.3 30.6 18.3C24 18.3 18.5 23.2 17.5 29.6H13C10 29.6 7.6 32 7.6 35V46.5C7.6 49.3 9.7 51.5 12.3 51.9C12.3 56.8 11.8 63.4 16.9 69.7C17.9 71 17.9 72.7 16.9 74C13.9 77.7 12.3 82.6 12.3 87.7V90.1C12.3 94.3 10.2 98.2 6.7 100.4C2.5 103 0 107.5 0 112.5C0 115.8 2.7 118.5 6 118.5H98.5C99.6 118.5 100.4 117.6 100.4 116.6C100.4 115.5 99.5 114.7 98.5 114.7H49.2C50.1 111.9 52.7 109.9 55.8 110C57.5 110.1 59.1 109.3 60 108C67.2 98.4 80.6 86.5 85.6 86.5C89.5 86.5 99.4 94.2 107.6 103.6C108.9 105.1 111 105.7 112.8 105.1C119.9 102.9 127.3 107.5 128.5 114.8H107.6C106.5 114.8 105.7 115.7 105.7 116.7C105.7 117.8 106.6 118.6 107.6 118.6H130.6C131.7 118.6 132.5 117.7 132.5 116.7C132.5 108.3 126.1 101.4 118 100.7ZM11.5 46.6V35C11.5 34.1 12.2 33.4 13.1 33.4H26.7C27.8 33.4 28.6 32.5 28.6 31.5C28.6 30.4 27.7 29.6 26.7 29.6H21.6C22.5 25.4 26.3 22.2 30.7 22.2H34.5C40.3 22.2 45.9 20 50.2 16.1C58.4 8.6 65.7 3.9 69.3 3.9C75.2 3.9 90.6 16.4 101.3 29.6H35.6C34.5 29.6 33.7 30.5 33.7 31.5C33.7 32.6 34.6 33.4 35.6 33.4C46.6 33.4 102.3 33.4 111.6 33.4C112.5 33.4 113.2 34.1 113.2 35V46.5C113.2 47.4 112.5 48.1 111.6 48.1H13C12.2 48.1 11.5 47.4 11.5 46.6ZM59.9 102C56.2 106.3 57.1 106.1 55.6 106.1C50.5 106.1 46.2 109.8 45.3 114.7H6C4.8 114.7 3.9 113.7 3.9 112.6C3.9 109 5.7 105.7 8.8 103.8C13.4 101 16.2 95.8 16.2 90.2C16.2 86.7 16 81.5 20 76.5C22.1 73.8 22.2 70 20 67.3C15.8 62 16.2 56.5 16.2 51.9H108.5C108.5 56.7 108.9 62 104.7 67.3C102.6 70 102.5 73.8 104.7 76.5C108.6 81.4 108.5 86.5 108.5 90.4C108.5 94.5 110 98.2 112.5 101.1C111.7 101.3 111.1 101.7 110.5 101C104.9 94.6 92.6 82.6 85.6 82.6C85 82.6 84.4 82.7 83.8 82.8C77.6 84.6 59.9 102 59.9 102Z" fill="#D8B56A"/>
<path d="M68.2 10.9001C69.3 10.9001 70.1 10.0001 70.1 9.0001C70.1 7.9001 69.2 7.1001 68.2 7.1001C67.2 7.1001 66.3 8.0001 66.3 9.0001C66.3 10.0001 67.2 10.9001 68.2 10.9001Z" fill="#D8B56A"/>
<path d="M62.0001 14.1999C63.1001 14.1999 63.9001 13.2999 63.9001 12.2999C63.9001 11.2999 63.0001 10.3999 62.0001 10.3999C60.9001 10.3999 60.1001 11.2999 60.1001 12.2999C60.1001 13.2999 60.9001 14.1999 62.0001 14.1999Z" fill="#D8B56A"/>
<path d="M86.5001 25.8C87.6001 25.8 88.4001 24.9 88.4001 23.9C88.4001 22.9 87.5001 22 86.5001 22C85.4001 22 84.6001 22.9 84.6001 23.9C84.6001 24.9 85.4001 25.8 86.5001 25.8Z" fill="#D8B56A"/>
<path d="M89.7999 97.4001C90.8999 97.4001 91.6999 96.5001 91.6999 95.5001C91.6999 94.5001 90.7999 93.6001 89.7999 93.6001C88.6999 93.6001 87.8999 94.5001 87.8999 95.5001C87.8999 96.5001 88.6999 97.4001 89.7999 97.4001Z" fill="#D8B56A"/>
<path d="M96.1 102.2C97.2 102.2 98 101.3 98 100.3C98 99.1999 97.1 98.3999 96.1 98.3999C95 98.3999 94.2 99.2999 94.2 100.3C94.2 101.3 95.1 102.2 96.1 102.2Z" fill="#D8B56A"/>
<path d="M119.3 112.2C120.4 112.2 121.2 111.3 121.2 110.3C121.2 109.2 120.3 108.4 119.3 108.4C118.2 108.4 117.4 109.3 117.4 110.3C117.4 111.3 118.2 112.2 119.3 112.2Z" fill="#D8B56A"/>
</svg>
