<svg width="115" height="91" viewBox="0 0 115 91" fill="none" xmlns="http://www.w3.org/2000/svg">
<path d="M96.833 5.55225H66.7527C65.5404 5.55225 64.5933 6.53724 64.5933 7.71166C64.5933 8.92397 65.5782 9.87108 66.7527 9.87108H96.833C104.334 9.87108 110.434 16.0084 110.434 23.5474V28.8134C110.434 36.3524 104.334 42.4897 96.833 42.4897H17.9574C10.4563 42.4897 4.35684 36.3524 4.35684 28.8134V23.5853C4.35684 16.0463 10.4563 9.90897 17.9574 9.90897C19.1697 9.90897 20.1168 8.92397 20.1168 7.74955C20.1168 6.53724 19.1318 5.59013 17.9574 5.59013C8.06953 5.55225 0.00012207 13.6595 0.00012207 23.5853V41.6941C0.00012207 46.9979 2.27319 49.8393 5.91011 53.1352L8.56203 78.8209C8.56203 85.1477 13.6764 90.2999 20.0032 90.2999H94.8251C101.152 90.2999 106.266 85.1477 106.266 78.8209L108.918 53.1352C112.555 49.8393 114.828 46.96 114.828 41.6941V23.5853C114.79 13.6595 106.721 5.55225 96.833 5.55225ZM101.91 78.8967C101.91 82.8367 98.7272 86.019 94.8251 86.019H20.0032C16.101 86.019 12.9187 82.8367 12.9187 78.8967L10.2289 56.0902C12.5778 57.2268 15.1918 57.8329 17.9574 57.8329H96.833C99.5986 57.8329 102.213 57.1889 104.561 56.0902L101.91 78.8967ZM110.471 41.732C110.471 45.975 108.539 47.8314 105.546 50.3697C105.433 50.4454 105.357 50.5212 105.243 50.597C102.932 52.4154 100.015 53.5141 96.833 53.5141H17.9574C14.7751 53.5141 11.858 52.4154 9.54702 50.597C9.47126 50.5212 9.3576 50.4454 9.24395 50.3697C6.25107 47.8693 4.31896 45.975 4.31896 41.732V40.5954C7.61491 44.4597 12.502 46.8843 17.9195 46.8843H96.7951C102.25 46.8843 107.1 44.4218 110.396 40.5954V41.732H110.471Z" fill="#D8B56A"/>
<path d="M19.5486 29.1164C19.5486 16.5387 28.2999 5.09758 41.8626 0.134701C42.696 -0.168376 43.378 0.134701 43.4158 0.134701C43.4537 0.134701 44.1735 0.513546 44.4766 1.04393C50.4624 11.4622 65.6162 18.4329 82.0581 18.4329C84.71 18.4329 87.3998 18.2435 89.9759 17.9025C90.9609 17.751 91.9459 18.3193 92.2869 19.2664C93.4992 22.4108 94.1053 25.7068 94.1053 29.0785C94.1053 30.3287 94.0296 31.6168 93.8402 32.8669C93.6886 34.0414 92.59 34.8748 91.3777 34.7233C90.2032 34.5717 89.3698 33.4731 89.5213 32.2608C89.6729 31.2 89.7486 30.1393 89.7486 29.0785C89.7486 26.8433 89.4077 24.6081 88.7636 22.4487C86.5285 22.676 84.2933 22.7897 82.0202 22.7897C65.6162 22.7897 50.8033 16.5387 42.9991 6.61296C41.6732 11.6895 43.7189 17.2585 48.3787 20.1377C49.4016 20.7818 49.7047 22.1077 49.0985 23.1306C48.6818 23.8125 47.962 24.1535 47.2422 24.1535C46.8633 24.1535 46.4466 24.0398 46.1056 23.8125C40.0441 20.062 37.2407 12.9397 38.6045 6.30988C29.4743 11.3106 23.8295 19.8347 23.8295 29.0406C23.8295 30.1014 23.9053 31.1621 24.0568 32.2229C24.2084 33.3973 23.4128 34.5339 22.2005 34.6854C22.0868 34.6854 22.0111 34.7233 21.8974 34.7233C20.8367 34.7233 19.8895 33.9277 19.738 32.8669C19.6622 31.6546 19.5486 30.3666 19.5486 29.1164Z" fill="#D8B56A"/>
</svg>
