<svg width="92" height="113" viewBox="0 0 92 113" fill="none" xmlns="http://www.w3.org/2000/svg">
<path d="M59.6665 83.0326H81.1664L80.1664 94.3477C80.1664 94.8469 80.3331 95.3461 80.6664 95.8453C80.9997 96.3445 81.4997 96.5109 81.9997 96.5109C82.9997 96.6773 83.9997 95.8453 84.1664 94.6805L88.333 50.9178C90.333 50.585 91.833 48.7546 91.833 46.5914V41.4331C91.833 40.2683 91.4997 39.2699 90.6664 38.4379C89.833 37.606 88.833 37.1068 87.6664 37.1068H33.6666C46.6665 30.6172 55.1665 16.9726 55.1665 1.99678C55.1665 0.83199 54.3332 0 53.1665 0C52.1665 0 51.1665 0.83199 51.1665 1.99678C51.1665 21.4653 35.6666 37.2732 16.8333 37.2732H4.16665H3.99999C1.83333 37.2732 0 39.1035 0 41.4331V46.5914C0 48.7546 1.49999 50.4186 3.49999 50.9178L8.99997 108.824C9.16664 110.987 11 112.651 13.1666 112.651H78.3331C80.4997 112.651 82.3331 110.987 82.4997 108.824L83.1664 101.836C83.1664 101.336 82.9997 100.837 82.6664 100.338C82.3331 99.8388 81.8331 99.6724 81.3331 99.6724C80.3331 99.506 79.3331 100.338 79.1664 101.503L78.4997 108.492C78.4997 108.658 78.3331 108.824 78.1664 108.824H13.1666C13 108.824 12.8333 108.658 12.8333 108.492L10.5 83.0326H31.9999H59.6665ZM30.6666 79.0391H9.99997L9.16664 70.8856H31.1666H60.1665H82.1664L81.6664 79.0391H60.9998H30.6666ZM33.3332 66.892H8.83331L7.33331 50.9178H26.6666C27.6666 50.9178 28.6666 50.0858 28.6666 48.921C28.6666 47.7562 27.8332 46.9242 26.6666 46.9242H4.16665C3.99999 46.9242 3.83332 46.7578 3.83332 46.5914V41.4331C3.83332 41.2667 3.99999 41.1003 4.16665 41.1003H87.3331C87.4997 41.1003 87.6664 41.2667 87.6664 41.4331V46.5914C87.6664 46.7578 87.4997 46.9242 87.3331 46.9242H33.8332C32.8332 46.9242 31.8332 47.7562 31.8332 48.921C31.8332 50.0858 32.6666 50.9178 33.8332 50.9178H84.3331L82.8331 66.892H58.3331H33.3332Z" fill="#D8B56A"/>
</svg>
