<svg width="112" height="89" viewBox="0 0 112 89" fill="none" xmlns="http://www.w3.org/2000/svg">
<path d="M42.0287 70.0889C42.0287 71.3048 41.0431 72.2904 39.8272 72.2904C38.6113 72.2904 37.6257 71.3048 37.6257 70.0889C37.6257 68.873 38.6113 67.8874 39.8272 67.8874C41.0431 67.8874 42.0287 68.873 42.0287 70.0889ZM104.515 74.7532C97.9653 83.21 88.1684 88.059 77.6363 88.0594H34.3635C23.8314 88.059 14.0345 83.21 7.48442 74.7532C0.678294 65.9655 -1.62953 54.7599 1.15338 44.0091L12.1104 1.64892C12.3636 0.678059 13.24 0 14.2417 0H14.2426H33.7249C34.9405 0 35.9264 0.985828 35.9264 2.20149C35.9264 5.66114 38.741 8.47574 42.2006 8.47574C45.6603 8.47574 48.4749 5.66114 48.4749 2.20149C48.4749 0.985828 49.4607 0 50.6764 0H72.3611C73.5767 0 74.5625 0.985828 74.5625 2.20149C74.5625 3.41539 75.5501 4.40298 76.764 4.40298C77.9779 4.40298 78.9655 3.41539 78.9655 2.20149C78.9655 0.985828 79.9514 0 81.167 0H97.7513C98.7547 0 99.6311 0.6785 99.8826 1.6498L110.847 44.0091C113.629 54.7599 111.322 65.9655 104.515 74.7532ZM106.584 45.1125L96.0469 4.40298H82.991C82.0824 6.96574 79.6339 8.80597 76.7638 8.80597C73.8937 8.80597 71.4452 6.96574 70.5367 4.40298H52.6496C51.6318 9.23768 47.3334 12.8787 42.2004 12.8787C37.0674 12.8787 32.769 9.23768 31.7512 4.40298H17.0875C17.0875 4.40298 27.2721 43.7568 27.3513 44.0606C28.9518 50.2424 31.6156 56.028 35.2657 61.2545C35.9616 62.2516 35.7174 63.624 34.7204 64.3201C33.7233 65.016 32.3511 64.7721 31.655 63.7752C27.7012 58.1152 24.828 51.887 23.0974 45.1966L14.2415 10.9852L5.41568 45.1125C2.97709 54.534 4.99982 64.3549 10.9654 72.0572C16.6756 79.4296 25.2029 83.6567 34.3635 83.6567H56.0786C52.6264 82.1883 49.3002 80.361 46.1895 78.219C45.188 77.5295 44.9353 76.1586 45.6248 75.1574C46.3143 74.1561 47.6852 73.903 48.6864 74.5927C57.2987 80.5169 67.3179 83.6503 77.6363 83.6569C86.7969 83.6569 95.3244 79.4298 101.034 72.0575C107 64.3549 109.023 54.534 106.584 45.1125ZM63.1146 58.5597C63.1146 54.1895 59.5594 50.6343 55.1892 50.6343C50.819 50.6343 47.2638 54.1895 47.2638 58.5597C47.2638 62.9299 50.819 66.485 55.1892 66.485C59.5594 66.485 63.1146 62.9296 63.1146 58.5597ZM58.7116 58.5597C58.7116 60.5018 57.1314 62.0821 55.1892 62.0821C53.247 62.0821 51.6668 60.5018 51.6668 58.5597C51.6668 56.6175 53.247 55.0373 55.1892 55.0373C57.1314 55.0373 58.7116 56.6175 58.7116 58.5597ZM88.6519 33.2425C88.6519 26.0806 82.825 20.2537 75.6631 20.2537C68.5012 20.2537 62.6743 26.0806 62.6743 33.2425C62.6743 40.4044 68.5012 46.2313 75.6631 46.2313C82.825 46.2313 88.6519 40.4044 88.6519 33.2425ZM84.2489 33.2425C84.2489 37.9768 80.3974 41.8283 75.6631 41.8283C70.9288 41.8283 67.0773 37.9768 67.0773 33.2425C67.0773 28.5082 70.9288 24.6567 75.6631 24.6567C80.3974 24.6567 84.2489 28.5082 84.2489 33.2425Z" fill="#D8B56A"/>
</svg>
