<svg width="130" height="118" viewBox="0 0 130 118" fill="none" xmlns="http://www.w3.org/2000/svg">
<path d="M127.833 94.3974H121.333V57.0267C121.333 53.7678 118.423 51.126 114.833 51.126H91.7562L54.327 24.6931H54.314L46.566 19.2153L20.5248 0.828917C19.6175 0.188176 18.467 -0.0990633 17.3264 0.0304133C16.1858 0.15989 15.1485 0.695472 14.443 1.51929L11.7823 4.62303C10.3702 6.26979 9.73666 8.3584 10.0211 10.4293C10.3055 12.5001 11.4847 14.3836 13.299 15.6651L34.2095 30.4285C34.9664 30.9666 35.9001 31.2589 36.8615 31.2585C37.0441 31.2588 37.2264 31.2483 37.4075 31.2271C38.5486 31.1015 39.5865 30.5659 40.2892 29.7401L44.6355 32.8084L43.3117 34.3564C42.236 35.5962 41.7578 37.178 41.9857 38.7425C42.1959 40.2856 43.0834 41.6863 44.447 42.6271L56.4785 51.126H15.1667C11.5768 51.126 8.66667 53.7678 8.66667 57.0267V94.3974H2.16667C0.97005 94.3974 0 95.278 0 96.3643V100.298C0.0117228 102.975 2.00668 105.309 4.85983 105.984L7.8 113.966C8.6837 116.372 11.1619 117.996 13.9555 118H116.045C118.838 117.996 121.316 116.372 122.2 113.966L125.132 105.984C127.988 105.312 129.987 102.977 130 100.298V96.3643C130 95.278 129.03 94.3974 127.833 94.3974ZM36.8767 27.3267L15.964 12.5594C15.0568 11.9186 14.4673 10.9769 14.3251 9.94148C14.1828 8.90605 14.4996 7.86174 15.2057 7.03836L17.862 3.93462L42.1958 21.1134L36.8767 27.3267ZM45.617 23.5326L49.9503 26.5951L47.2875 29.7008L42.9542 26.6383L45.617 23.5326ZM47.0925 39.5155C46.6454 39.2077 46.3546 38.7486 46.2865 38.2429C46.2115 37.7195 46.3733 37.1909 46.735 36.7776L53.378 29.0104L91 55.5692L89.6827 57.1171C86.0088 61.401 79.2097 62.1794 74.4792 58.8578L71.5 56.7533V55.0598C71.5 52.8872 69.5599 51.126 67.1667 51.126H63.5353L47.0925 39.5155ZM13 57.0267C13 55.9404 13.9701 55.0598 15.1667 55.0598H67.1667V68.828C67.1667 69.9142 68.1367 70.7948 69.3333 70.7948C70.53 70.7948 71.5 69.9142 71.5 68.828V61.7472L71.8163 61.9714C78.439 66.625 87.9612 65.5349 93.1038 59.5344L94.4038 57.9983C95.1163 57.1822 95.4365 56.14 95.2922 55.107V55.0676H114.833C116.03 55.0676 117 55.9483 117 57.0345V94.3974H13V57.0267ZM118.101 112.721C117.806 113.524 116.977 114.066 116.045 114.066H13.9555C13.0225 114.066 12.1942 113.524 11.8993 112.721L9.50733 106.199H120.493L118.101 112.721ZM125.667 100.298C125.667 101.384 124.697 102.265 123.5 102.265H6.5C5.30338 102.265 4.33333 101.384 4.33333 100.298V98.3312H125.667V100.298Z" fill="#D8B56A"/>
</svg>
