<svg width="137" height="118" viewBox="0 0 137 118" fill="none" xmlns="http://www.w3.org/2000/svg">
<path d="M103.483 29.6635C106.065 29.6635 106.07 26.0137 103.483 26.0137C100.901 26.0137 100.897 29.6635 103.483 29.6635Z" fill="#D8B56A"/>
<path d="M117.305 26.1068C119.888 26.1068 119.892 22.457 117.305 22.457C114.723 22.457 114.719 26.1068 117.305 26.1068Z" fill="#D8B56A"/>
<path d="M136.829 98.1161L133.176 90.5965C132.162 88.5073 128.445 89.8875 129.505 92.0715L132.496 98.2282L120.846 105.753L92.5215 47.4437L104.172 39.9185L125.208 83.2251C126.223 85.314 129.94 83.9341 128.879 81.7501L122.349 68.3072C123.959 67.3468 126.204 65.9479 126.967 64.2316C127.301 63.4804 135.025 45.5076 127.102 14.6492C123.458 -2.46298 51.0176 -1.27387 33.282 1.92773C30.6944 2.35452 31.2303 5.8211 33.8861 5.53593C54.9633 2.47034 106.336 1.75936 122 13.075H65.3314C63.292 13.075 62.5817 15.6517 64.3961 16.5143L83.3493 25.5974C64.5189 27.1055 39.025 25.9906 23.5367 22.4445C2.30681 17.4136 2.31002 12.3851 23.5367 7.35475C24.6138 7.11727 25.2752 6.13085 25.0143 5.15124C24.7532 4.17188 23.6683 3.57063 22.5915 3.80763C10.1882 6.5423 3.79164 10.1892 3.56076 14.6492C-4.36237 45.5076 3.36224 63.4804 3.69559 64.2316C6.18744 69.8588 17.3389 72.4667 22.8622 73.9043C38.7109 78.0042 55.5088 78.8602 71.9005 78.4551L57.1485 107.777C56.7306 108.608 57.0527 109.592 57.9024 110.079C74.4371 119.446 103.056 121.796 121.183 110.012C121.182 110.013 136.155 100.342 136.155 100.342C136.932 99.8393 137.214 98.9093 136.829 98.1161ZM123.507 16.7248C128.059 36.2505 127.427 50.7129 123.311 62.7081C122.892 63.2541 122.119 64.0099 120.702 64.9158L106.849 36.3989C106.368 35.4088 104.896 34.974 103.852 35.6485L92.2296 43.1556V26.8291C92.2296 26.1191 91.7494 25.4366 91.0198 25.1483L73.444 16.725L123.507 16.7248ZM65.3314 74.9019C42.564 74.7508 16.2806 71.4776 7.36273 62.7349C2.00074 49.5241 3.51795 33.3255 6.43785 19.8376C22.7488 30.6828 65.5792 30.9162 88.2163 28.8526V46.0278C88.1995 46.0538 73.7864 74.7094 73.7701 74.7393C70.9995 74.8454 68.1679 74.9019 65.3314 74.9019ZM61.5642 107.772L89.992 51.2679L117.476 107.849C100.741 117.501 77.1582 115.592 61.5642 107.772Z" fill="#D8B56A"/>
<path d="M79.5867 90.8242C77.0045 90.8242 77.0002 94.474 79.5867 94.474C82.169 94.474 82.1733 90.8242 79.5867 90.8242Z" fill="#D8B56A"/>
<path d="M89.3387 67.3926C86.7564 67.3926 86.7521 71.0424 89.3387 71.0424C91.921 71.0424 91.9253 67.3926 89.3387 67.3926Z" fill="#D8B56A"/>
<path d="M115.802 86.7826C118.384 86.7826 118.388 83.1328 115.802 83.1328C113.219 83.1328 113.215 86.7826 115.802 86.7826Z" fill="#D8B56A"/>
<path d="M107.3 58.2314C104.567 57.9187 104.44 62.0157 107.444 61.8542C110.222 61.705 110.041 57.9173 107.3 58.2314Z" fill="#D8B56A"/>
<path d="M93.8582 104.559C91.276 104.559 91.2717 108.208 93.8582 108.208C96.4405 108.208 96.4448 104.559 93.8582 104.559Z" fill="#D8B56A"/>
</svg>
