<svg width="55" height="55" viewBox="0 0 55 55" fill="none" xmlns="http://www.w3.org/2000/svg">
<rect width="55" height="55" rx="5" fill="#D8B56A"/>
<g clip-path="url(#clip0_929_2239)">
<path d="M36.3098 35.5723V18.7458C36.3098 13.9764 33.3293 10.6453 29.0618 10.6453H25.7648C21.5317 10.6453 18.6875 13.9006 18.6875 18.7458C18.6875 18.7458 18.6875 37.4701 18.6875 37.4765C18.6875 41.1797 21.7032 44.3549 25.4237 44.3513C25.4712 44.3522 25.5181 44.3549 25.5658 44.3549C29.3014 44.3549 32.3487 41.361 32.4442 37.647V24.5726C32.4442 21.8313 30.3718 19.6838 27.726 19.6838H27.2144C24.6218 19.6838 22.6667 21.7856 22.6667 24.5726V35.4302H25.2247V24.5726C25.2247 23.4124 25.8399 22.2419 27.2142 22.2419H27.7259C28.9574 22.2419 29.886 23.2438 29.886 24.5726V37.4765C29.886 39.8587 27.9479 41.7968 25.5657 41.7968C24.2879 41.7968 23.1385 41.2389 22.3467 40.3541C21.7097 39.5295 21.2455 38.2468 21.2455 36.2543V18.7457C21.2455 14.6592 23.5801 13.2033 25.7648 13.2033H29.0618C32.3014 13.2033 33.7515 15.9869 33.7515 18.7457V35.572H36.3098V35.5723Z" fill="#FFFDF8"/>
</g>
<defs>
<clipPath id="clip0_929_2239">
<rect width="33.7097" height="33.7097" fill="white" transform="translate(10.6436 10.6453)"/>
</clipPath>
</defs>
</svg>
