<svg width="180" height="53" viewBox="0 0 180 53" fill="none" xmlns="http://www.w3.org/2000/svg">
<g clip-path="url(#clip0_1015_1543)">
<mask id="mask0_1015_1543" style="mask-type:luminance" maskUnits="userSpaceOnUse" x="0" y="42" width="180" height="11">
<path d="M179.975 42.0947H2.27209C1.02175 42.0947 0.00957178 43.1174 0.0235812 44.3678L0.0831212 50.5354C0.0971306 51.7682 1.0988 52.7629 2.33163 52.7629H177.744C178.983 52.7629 179.992 51.7577 179.992 50.5179C179.996 47.3903 179.992 42.0982 179.992 42.0982C179.996 42.0947 179.978 42.0947 179.975 42.0947Z" fill="white"/>
</mask>
<g mask="url(#mask0_1015_1543)">
<path d="M179.999 42.0947H0.00976562V52.7629H179.999V42.0947Z" fill="url(#paint0_linear_1015_1543)"/>
</g>
<path d="M0 2.18197V47.0611C0 48.2659 0.96665 49.2431 2.15745 49.2431H177.843C179.033 49.2431 180 48.2659 180 47.0611V2.18197C180 0.977157 179.033 0 177.843 0H2.15745C0.96665 0 0 0.977157 0 2.18197Z" fill="#2C2927"/>
<path d="M142.424 17.946L142.147 18.8741C142.025 19.2804 141.653 19.5606 141.23 19.5606H137.601V32.8835C137.601 33.1637 137.384 33.3914 137.107 33.4054H134.726C134.424 33.4229 134.172 33.1812 134.172 32.8835V19.5571H129.693C129.455 19.5571 129.29 19.3259 129.364 19.1018L129.675 18.1561C129.805 17.7639 130.173 17.4942 130.586 17.4942H142.095C142.326 17.4977 142.49 17.7218 142.424 17.946ZM115.974 18.8741L116.251 17.946C116.317 17.7218 116.149 17.4977 115.918 17.4977H108.479H107.281C106.994 17.4977 106.763 17.7359 106.763 18.0266V32.866C106.763 33.1742 107.015 33.4159 107.316 33.4019H109.698C109.975 33.3879 110.195 33.1532 110.195 32.866V19.5571H115.053C115.48 19.5571 115.851 19.2804 115.974 18.8741ZM71.8094 25.5041C71.8094 29.9626 68.4226 33.5735 63.5088 33.5735C58.4304 33.5735 55.2082 29.9591 55.2082 25.5041C55.2082 21.0456 58.595 17.4347 63.5088 17.4347C68.5872 17.4312 71.8094 21.0456 71.8094 25.5041ZM68.0163 25.5041C68.0163 22.0893 66.2651 19.3224 63.5088 19.3224C60.5108 19.3224 59.0013 22.0893 59.0013 25.5041C59.0013 28.9189 60.7524 31.6857 63.5088 31.6857C66.6714 31.6822 68.0163 28.9154 68.0163 25.5041ZM104.143 25.5041C104.143 29.9626 100.756 33.5735 95.8425 33.5735C90.7641 33.5735 87.5419 29.9591 87.5419 25.5041C87.5419 21.0456 90.9287 17.4347 95.8425 17.4347C100.921 17.4312 104.143 21.0456 104.143 25.5041ZM100.35 25.5041C100.35 22.0893 98.5989 19.3224 95.8425 19.3224C92.8445 19.3224 91.335 22.0893 91.335 25.5041C91.335 28.9189 93.0862 31.6857 95.8425 31.6857C99.0051 31.6822 100.35 28.9154 100.35 25.5041ZM159.2 25.5041C159.2 29.9626 155.813 33.5735 150.9 33.5735C145.825 33.5735 142.599 29.9591 142.599 25.5041C142.599 21.0456 145.986 17.4347 150.9 17.4347C155.974 17.4312 159.2 21.0456 159.2 25.5041ZM155.407 25.5041C155.407 22.0893 153.656 19.3224 150.9 19.3224C147.905 19.3224 146.392 22.0893 146.392 25.5041C146.392 28.9189 148.143 31.6857 150.9 31.6857C154.059 31.6822 155.407 28.9154 155.407 25.5041ZM130.194 32.81C130.323 33.1217 130.162 33.3809 129.882 33.3949L126.961 33.4019C126.66 33.4194 126.509 33.1882 126.408 32.88L124.965 28.9154H119.35L117.991 32.873C117.89 33.1812 117.739 33.4124 117.438 33.3949H115.435C115.155 33.3809 114.993 33.1217 115.123 32.81L120.748 18.5064C120.765 18.0266 120.94 17.7148 121.34 17.6658C121.872 17.6028 123.424 17.4452 123.424 17.4452C123.781 17.4136 124.093 17.5958 124.201 17.883L130.194 32.81ZM124.236 26.9085L122.18 21.2592L122.173 21.2487H121.991L120.047 26.912H124.236V26.9085ZM38.7331 17.4977H36.341C36.0538 17.4977 35.8227 17.7359 35.8227 18.0266V32.866C35.8227 33.1742 36.0749 33.4159 36.3761 33.4019H38.7577C39.0343 33.3879 39.2515 33.1532 39.2515 32.866V18.0301C39.2515 17.7359 39.0203 17.4977 38.7331 17.4977ZM172.828 28.6177C172.828 32.4563 169.213 33.5735 166.499 33.5735C163.785 33.5735 162.829 33.3353 162.198 33.2793C161.9 33.2513 161.645 33.0552 161.645 32.7575V18.3628C161.645 18.0756 161.876 17.8444 162.163 17.8444C162.163 17.8444 164.433 17.4312 166.355 17.4312C168.114 17.4312 171.872 17.8865 171.872 21.2872C171.872 22.7968 170.894 23.858 169.735 24.59V24.8702C171.322 25.5216 172.828 26.7439 172.828 28.6177ZM165.074 24.2888H165.932C167.15 24.2888 168.579 23.4692 168.579 21.613C168.579 20.0439 167.585 19.2279 166.096 19.2279C165.82 19.2279 165.452 19.2699 165.07 19.3259V24.2888H165.074ZM169.119 28.7928C169.119 27.0766 167.861 26.1205 166.047 26.1205H165.074V31.6647C165.392 31.7208 165.781 31.7698 166.191 31.7698C167.974 31.7698 169.119 30.6175 169.119 28.7928ZM53.5761 22.8248C53.5761 25.6582 51.198 27.9557 47.8428 27.9557C47.2859 27.9557 46.736 27.9032 46.2527 27.8366V32.887C46.2527 33.1742 46.0215 33.4054 45.7343 33.4054H43.3422C43.055 33.4054 42.8239 33.1742 42.8239 32.887V18.4328C42.8239 18.1316 43.0866 17.9915 43.3738 17.911C44.1898 17.6798 45.6818 17.4312 47.2859 17.4312C50.494 17.4312 53.5761 18.9862 53.5761 22.8248ZM50.0492 22.6497C50.0492 20.9895 49.0301 19.6096 47.2439 19.6096C46.8726 19.6096 46.5329 19.6586 46.2492 19.7182V26.0399C46.5924 26.0855 46.9987 26.124 47.4085 26.124C49.3873 26.124 50.0492 24.2012 50.0492 22.6497ZM33.998 27.9978C33.998 31.8363 31.2451 33.5735 27.7077 33.5735C26.1036 33.5735 24.6116 33.3283 23.7956 33.0972C23.5049 33.0131 23.2422 32.873 23.2422 32.5753V18.016C23.2422 17.7289 23.4734 17.4977 23.7606 17.4977H26.1527C26.4399 17.4977 26.671 17.7289 26.671 18.016V22.9859C27.1544 22.9158 27.7077 22.8668 28.2611 22.8668C32.1137 22.8668 33.998 25.1644 33.998 27.9978ZM30.4711 28.1729C30.4711 26.6213 29.9737 24.6985 27.8303 24.6985C27.4205 24.6985 27.0143 24.7371 26.671 24.7826V31.29C26.9512 31.3495 27.2909 31.3985 27.6622 31.3985C29.4519 31.395 30.4711 29.833 30.4711 28.1729ZM85.388 28.1834C85.388 32.022 82.5126 33.5735 78.9752 33.5735C77.3711 33.5735 75.6935 33.3283 74.8809 33.0972C74.5902 33.0131 74.3276 32.873 74.3276 32.5753V18.016C74.3276 17.7289 74.5587 17.4977 74.8459 17.4977H75.8091H83.8014C84.0326 17.4977 84.2007 17.7218 84.1342 17.946L83.8575 18.8741C83.7349 19.2804 83.3601 19.5606 82.9364 19.5606H77.7529V23.1925C78.2992 23.1155 78.9227 23.0559 79.5286 23.0559C83.3812 23.0524 85.388 25.35 85.388 28.1834ZM81.8646 28.2955C81.8646 26.7439 81.4058 24.8807 79.1013 24.8807C78.646 24.8807 78.1626 24.9262 77.7564 24.9787V31.262C78.0961 31.3355 78.5094 31.395 78.9332 31.395C80.884 31.395 81.8646 29.9556 81.8646 28.2955ZM16.1745 19.5606C17.5334 19.5606 18.5876 19.9879 19.2565 20.2505C19.5262 20.3556 19.8344 20.2435 19.964 19.9879L20.3983 19.1298C20.5349 18.8636 20.4193 18.5414 20.1461 18.4083C18.8713 17.7884 17.5649 17.4312 15.8663 17.4312C10.6092 17.4312 7.16992 21.0456 7.16992 25.5006C7.16992 30.4389 10.5987 33.57 15.8663 33.57C18.1743 33.57 19.4562 32.9326 20.1602 32.5508C20.4193 32.4107 20.5209 32.099 20.3913 31.8398L19.915 30.8942C19.7819 30.6315 19.4562 30.5195 19.183 30.6385C18.5701 30.9117 17.6525 31.3215 16.1114 31.3215C12.8332 31.3215 10.7984 28.9119 10.7984 25.5006C10.7984 22.0893 12.6406 19.5606 16.1745 19.5606Z" fill="#FEFEFE"/>
<mask id="mask1_1015_1543" style="mask-type:luminance" maskUnits="userSpaceOnUse" x="57" y="8" width="13" height="8">
<path d="M68.156 10.7067C68.086 10.8783 68.051 11.0604 68.0335 11.2355C67.7042 10.7662 67.0178 10.6646 67.0178 10.6646C67.0178 10.6646 66.8391 11.3546 67.1614 11.8449C67.298 12.0481 67.4976 12.1847 67.6867 12.2757C67.5151 12.4263 66.2122 13.477 64.0268 12.4964V11.5752C64.2369 11.5612 64.4821 11.5122 64.6852 11.3686C65.1685 11.0359 65.2561 10.3284 65.2561 10.3284C65.2561 10.3284 64.5836 10.1673 64.1003 10.4825C64.1528 10.3109 64.1844 10.1323 64.1844 9.94665C64.1844 9.10258 63.5049 8.48267 63.5049 8.48267C63.5049 8.48267 62.829 9.10258 62.829 9.94665C62.829 10.1323 62.864 10.3144 62.913 10.4825C62.4332 10.1673 61.7572 10.3284 61.7572 10.3284C61.7572 10.3284 61.8448 11.0359 62.3281 11.3686C62.5313 11.5122 62.7764 11.5612 62.9866 11.5752V12.4964C60.7976 13.477 59.4982 12.4263 59.3266 12.2757C59.5157 12.1847 59.7154 12.0481 59.852 11.8449C60.1742 11.3546 59.9956 10.6646 59.9956 10.6646C59.9956 10.6646 59.3091 10.7662 58.9799 11.2355C58.9659 11.0569 58.9273 10.8783 58.8608 10.7067C58.5491 9.92213 57.6875 9.59641 57.6875 9.59641L58.8223 12.4333L59.7574 15.4383C61.6592 14.8605 63.5049 14.8605 63.5049 14.8605C63.5049 14.8605 65.3507 14.8605 67.2524 15.4383L68.1876 12.4333L69.3223 9.59641C69.3258 9.59641 68.4677 9.92213 68.156 10.7067Z" fill="white"/>
</mask>
<g mask="url(#mask1_1015_1543)">
<path d="M69.3301 8.47559H57.6953V15.4348H69.3301V8.47559Z" fill="url(#paint1_linear_1015_1543)"/>
</g>
</g>
<defs>
<linearGradient id="paint0_linear_1015_1543" x1="179.776" y1="47.4277" x2="2.11924" y2="47.4277" gradientUnits="userSpaceOnUse">
<stop stop-color="#D9B568"/>
<stop offset="0.25" stop-color="#D9B568"/>
<stop offset="0.76" stop-color="#F0DBB4"/>
<stop offset="1" stop-color="#F0DBB4"/>
</linearGradient>
<linearGradient id="paint1_linear_1015_1543" x1="69.3767" y1="11.9565" x2="57.952" y2="11.9565" gradientUnits="userSpaceOnUse">
<stop stop-color="#D3B274"/>
<stop offset="0.46" stop-color="#D3B274"/>
<stop offset="0.56" stop-color="#F3DEB5"/>
<stop offset="1" stop-color="#F3DEB5"/>
</linearGradient>
<clipPath id="clip0_1015_1543">
<rect width="180" height="52.763" fill="white"/>
</clipPath>
</defs>
</svg>
