<svg width="260" height="77" viewBox="0 0 260 77" fill="none" xmlns="http://www.w3.org/2000/svg">
<g clip-path="url(#clip0_806_6624)">
<mask id="mask0_806_6624" style="mask-type:luminance" maskUnits="userSpaceOnUse" x="0" y="60" width="260" height="17">
<path d="M259.965 60.8036H3.28321C1.47717 60.8036 0.015128 62.2808 0.0353638 64.0869L0.121366 72.9957C0.141602 74.7764 1.58846 76.2132 3.36922 76.2132H256.742C258.533 76.2132 259.99 74.7613 259.99 72.9704C259.995 68.4527 259.99 60.8086 259.99 60.8086C259.995 60.8036 259.97 60.8036 259.965 60.8036Z" fill="white"/>
</mask>
<g mask="url(#mask0_806_6624)">
<path d="M260 60.8036H0.015625V76.2132H260V60.8036Z" fill="url(#paint0_linear_806_6624)"/>
</g>
<path d="M0 3.15173V67.9772C0 69.7175 1.39627 71.1289 3.11632 71.1289H256.884C258.604 71.1289 260 69.7175 260 67.9772V3.15173C260 1.41145 258.604 0 256.884 0H3.11632C1.39627 0 0 1.41145 0 3.15173Z" fill="#2C2927"/>
<path d="M205.722 25.9221L205.323 27.2627C205.146 27.8496 204.609 28.2543 203.997 28.2543H198.756V47.4986C198.756 47.9033 198.442 48.2321 198.043 48.2523H194.603C194.168 48.2776 193.803 47.9286 193.803 47.4986V28.2492H187.333C186.989 28.2492 186.751 27.9153 186.857 27.5916L187.308 26.2256C187.495 25.659 188.026 25.2695 188.623 25.2695H205.247C205.581 25.2746 205.818 25.5983 205.722 25.9221ZM167.517 27.2627L167.917 25.9221C168.013 25.5983 167.77 25.2746 167.436 25.2746H156.691H154.961C154.546 25.2746 154.212 25.6186 154.212 26.0385V47.4733C154.212 47.9184 154.576 48.2675 155.011 48.2473H158.451C158.851 48.227 159.17 47.8881 159.17 47.4733V28.2492H166.186C166.804 28.2492 167.34 27.8496 167.517 27.2627ZM103.724 36.8393C103.724 43.2794 98.8316 48.4952 91.7338 48.4952C84.3984 48.4952 79.7441 43.2743 79.7441 36.8393C79.7441 30.3993 84.6361 25.1835 91.7338 25.1835C99.0693 25.1784 103.724 30.3993 103.724 36.8393ZM98.2447 36.8393C98.2447 31.9068 95.7152 27.9103 91.7338 27.9103C87.4034 27.9103 85.223 31.9068 85.223 36.8393C85.223 41.7718 87.7524 45.7684 91.7338 45.7684C96.3021 45.7633 98.2447 41.7668 98.2447 36.8393ZM150.428 36.8393C150.428 43.2794 145.536 48.4952 138.438 48.4952C131.103 48.4952 126.448 43.2743 126.448 36.8393C126.448 30.3993 131.34 25.1835 138.438 25.1835C145.774 25.1784 150.428 30.3993 150.428 36.8393ZM144.949 36.8393C144.949 31.9068 142.42 27.9103 138.438 27.9103C134.108 27.9103 131.927 31.9068 131.927 36.8393C131.927 41.7718 134.457 45.7684 138.438 45.7684C143.006 45.7633 144.949 41.7668 144.949 36.8393ZM229.955 36.8393C229.955 43.2794 225.063 48.4952 217.965 48.4952C210.634 48.4952 205.975 43.2743 205.975 36.8393C205.975 30.3993 210.867 25.1835 217.965 25.1835C225.295 25.1784 229.955 30.3993 229.955 36.8393ZM224.476 36.8393C224.476 31.9068 221.946 27.9103 217.965 27.9103C213.64 27.9103 211.454 31.9068 211.454 36.8393C211.454 41.7718 213.984 45.7684 217.965 45.7684C222.528 45.7633 224.476 41.7668 224.476 36.8393ZM188.056 47.3923C188.244 47.8426 188.011 48.2169 187.606 48.2372L183.387 48.2473C182.952 48.2726 182.734 47.9387 182.588 47.4935L180.503 41.7668H172.394L170.431 47.4834C170.284 47.9286 170.067 48.2625 169.632 48.2372H166.738C166.333 48.2169 166.1 47.8426 166.288 47.3923L174.412 26.7315C174.438 26.0385 174.691 25.5882 175.267 25.5174C176.036 25.4263 178.277 25.1987 178.277 25.1987C178.793 25.1531 179.244 25.4162 179.4 25.831L188.056 47.3923ZM179.451 38.868L176.481 30.7079L176.471 30.6927H176.208L173.401 38.873H179.451V38.868ZM55.9468 25.2746H52.4915C52.0767 25.2746 51.7428 25.6186 51.7428 26.0385V47.4733C51.7428 47.9184 52.107 48.2675 52.5421 48.2473H55.9822C56.3819 48.227 56.6955 47.8881 56.6955 47.4733V26.0435C56.6955 25.6186 56.3616 25.2746 55.9468 25.2746ZM249.639 41.3367C249.639 46.8814 244.418 48.4952 240.498 48.4952C236.577 48.4952 235.196 48.1512 234.285 48.0702C233.855 48.0297 233.486 47.7464 233.486 47.3164V26.5241C233.486 26.1093 233.82 25.7754 234.235 25.7754C234.235 25.7754 237.513 25.1784 240.29 25.1784C242.83 25.1784 248.258 25.8361 248.258 30.7483C248.258 32.9288 246.846 34.4616 245.172 35.5189V35.9237C247.464 36.8646 249.639 38.6302 249.639 41.3367ZM238.439 35.0839H239.678C241.438 35.0839 243.503 33.9001 243.503 31.2188C243.503 28.9524 242.066 27.7737 239.916 27.7737C239.516 27.7737 238.985 27.8344 238.433 27.9153V35.0839H238.439ZM244.282 41.5897C244.282 39.1108 242.465 37.7297 239.845 37.7297H238.439V45.738C238.899 45.819 239.46 45.8898 240.052 45.8898C242.627 45.8898 244.282 44.2254 244.282 41.5897ZM77.3866 32.9692C77.3866 37.0619 73.9516 40.3806 69.1051 40.3806C68.3008 40.3806 67.5065 40.3047 66.8084 40.2086V47.5036C66.8084 47.9184 66.4745 48.2523 66.0596 48.2523H62.6044C62.1895 48.2523 61.8556 47.9184 61.8556 47.5036V26.6253C61.8556 26.1902 62.2351 25.9879 62.6499 25.8715C63.8286 25.5376 65.9837 25.1784 68.3008 25.1784C72.9348 25.1784 77.3866 27.4246 77.3866 32.9692ZM72.2923 32.7163C72.2923 30.3183 70.8201 28.3251 68.24 28.3251C67.7038 28.3251 67.2131 28.3959 66.8033 28.4819V37.6134C67.2991 37.6791 67.8859 37.7348 68.4778 37.7348C71.3361 37.7348 72.2923 34.9574 72.2923 32.7163ZM49.1071 40.4413C49.1071 45.9859 45.1307 48.4952 40.0212 48.4952C37.7042 48.4952 35.5491 48.141 34.3703 47.8071C33.9504 47.6857 33.571 47.4834 33.571 47.0534V26.0233C33.571 25.6084 33.9049 25.2746 34.3197 25.2746H37.775C38.1898 25.2746 38.5237 25.6084 38.5237 26.0233V33.2019C39.2219 33.1008 40.0212 33.0299 40.8205 33.0299C46.3854 33.0299 49.1071 36.3486 49.1071 40.4413ZM44.0127 40.6943C44.0127 38.4531 43.2943 35.6758 40.1982 35.6758C39.6064 35.6758 39.0195 35.7314 38.5237 35.7972V45.1967C38.9285 45.2827 39.4192 45.3536 39.9554 45.3536C42.5406 45.3485 44.0127 43.0922 44.0127 40.6943ZM123.337 40.7094C123.337 46.2541 119.184 48.4952 114.074 48.4952C111.757 48.4952 109.334 48.141 108.16 47.8071C107.74 47.6857 107.361 47.4834 107.361 47.0534V26.0233C107.361 25.6084 107.695 25.2746 108.11 25.2746H109.501H121.045C121.379 25.2746 121.622 25.5983 121.526 25.9221L121.126 27.2627C120.949 27.8496 120.408 28.2543 119.796 28.2543H112.309V33.5004C113.098 33.3891 113.998 33.3031 114.874 33.3031C120.438 33.2981 123.337 36.6167 123.337 40.7094ZM118.248 40.8713C118.248 38.6302 117.585 35.9388 114.256 35.9388C113.599 35.9388 112.901 36.0046 112.314 36.0805V45.1563C112.804 45.2625 113.401 45.3485 114.013 45.3485C116.831 45.3485 118.248 43.2693 118.248 40.8713ZM23.362 28.2543C25.3249 28.2543 26.8477 28.8715 27.8139 29.2509C28.2035 29.4027 28.6487 29.2408 28.8358 28.8715L29.4631 27.632C29.6604 27.2475 29.4935 26.7821 29.0989 26.5899C27.2574 25.6945 25.3705 25.1784 22.9169 25.1784C15.3234 25.1784 10.3555 30.3993 10.3555 36.8343C10.3555 43.9674 15.3082 48.4901 22.9169 48.4901C26.2507 48.4901 28.1023 47.5694 29.1191 47.018C29.4935 46.8156 29.6402 46.3653 29.453 45.991L28.765 44.6251C28.5728 44.2456 28.1023 44.0838 27.7077 44.2558C26.8224 44.6504 25.4969 45.2423 23.271 45.2423C18.5358 45.2423 15.5965 41.7617 15.5965 36.8343C15.5965 31.9068 18.2576 28.2543 23.362 28.2543Z" fill="#FEFEFE"/>
<mask id="mask1_806_6624" style="mask-type:luminance" maskUnits="userSpaceOnUse" x="83" y="12" width="18" height="11">
<path d="M98.4474 15.4652C98.3462 15.7131 98.2956 15.9762 98.2703 16.2291C97.7948 15.5512 96.8032 15.4045 96.8032 15.4045C96.8032 15.4045 96.5452 16.4012 97.0106 17.1094C97.2079 17.4028 97.4963 17.6001 97.7695 17.7317C97.5216 17.9492 95.6397 19.4669 92.4829 18.0504V16.7199C92.7864 16.6996 93.1405 16.6288 93.434 16.4214C94.1321 15.9408 94.2586 14.9189 94.2586 14.9189C94.2586 14.9189 93.2873 14.6862 92.5891 15.1415C92.665 14.8936 92.7105 14.6356 92.7105 14.3675C92.7105 13.1482 91.7291 12.2528 91.7291 12.2528C91.7291 12.2528 90.7527 13.1482 90.7527 14.3675C90.7527 14.6356 90.8033 14.8986 90.8741 15.1415C90.1811 14.6862 89.2047 14.9189 89.2047 14.9189C89.2047 14.9189 89.3312 15.9408 90.0293 16.4214C90.3227 16.6288 90.6768 16.6996 90.9804 16.7199V18.0504C87.8185 19.4669 85.9416 17.9492 85.6938 17.7317C85.9669 17.6001 86.2553 17.4028 86.4526 17.1094C86.918 16.4012 86.66 15.4045 86.66 15.4045C86.66 15.4045 85.6685 15.5512 85.1929 16.2291C85.1727 15.9711 85.117 15.7131 85.0209 15.4652C84.5707 14.332 83.3262 13.8616 83.3262 13.8616L84.9653 17.9593L86.316 22.2999C89.063 21.4652 91.7291 21.4652 91.7291 21.4652C91.7291 21.4652 94.3952 21.4652 97.1422 22.2999L98.4929 17.9593L100.132 13.8616C100.137 13.8616 98.8976 14.332 98.4474 15.4652Z" fill="white"/>
</mask>
<g mask="url(#mask1_806_6624)">
<path d="M100.142 12.2427H83.3359V22.2948H100.142V12.2427Z" fill="url(#paint1_linear_806_6624)"/>
</g>
</g>
<defs>
<linearGradient id="paint0_linear_806_6624" x1="259.678" y1="68.5067" x2="3.06264" y2="68.5067" gradientUnits="userSpaceOnUse">
<stop stop-color="#D9B568"/>
<stop offset="0.25" stop-color="#D9B568"/>
<stop offset="0.76" stop-color="#F0DBB4"/>
<stop offset="1" stop-color="#F0DBB4"/>
</linearGradient>
<linearGradient id="paint1_linear_806_6624" x1="100.209" y1="17.2707" x2="83.7068" y2="17.2707" gradientUnits="userSpaceOnUse">
<stop stop-color="#D3B274"/>
<stop offset="0.46" stop-color="#D3B274"/>
<stop offset="0.56" stop-color="#F3DEB5"/>
<stop offset="1" stop-color="#F3DEB5"/>
</linearGradient>
<clipPath id="clip0_806_6624">
<rect width="260" height="76.2132" fill="white"/>
</clipPath>
</defs>
</svg>
