<svg width="240" height="37" viewBox="0 0 240 37" fill="none" xmlns="http://www.w3.org/2000/svg">
<path d="M195.952 14.2264L195.551 15.571C195.373 16.1596 194.835 16.5655 194.221 16.5655H188.965V35.8674C188.965 36.2733 188.65 36.6032 188.249 36.6235H184.799C184.362 36.6488 183.997 36.2987 183.997 35.8674V16.5604H177.507C177.162 16.5604 176.924 16.2256 177.03 15.9008L177.482 14.5308C177.67 13.9625 178.202 13.5718 178.801 13.5718H195.475C195.81 13.5769 196.048 13.9016 195.952 14.2264ZM157.632 15.571L158.033 14.2264C158.129 13.9016 157.886 13.5769 157.551 13.5769H146.773H145.038C144.622 13.5769 144.287 13.9219 144.287 14.3431V35.842C144.287 36.2886 144.653 36.6387 145.089 36.6184H148.539C148.94 36.5981 149.26 36.2581 149.26 35.842V16.5604H156.298C156.917 16.5604 157.454 16.1596 157.632 15.571ZM93.6476 25.1763C93.6476 31.6356 88.741 36.867 81.622 36.867C74.2646 36.867 69.5964 31.6305 69.5964 25.1763C69.5964 18.7169 74.5031 13.4855 81.622 13.4855C88.9795 13.4805 93.6476 18.7169 93.6476 25.1763ZM88.1524 25.1763C88.1524 20.229 85.6153 16.2205 81.622 16.2205C77.2786 16.2205 75.0917 20.229 75.0917 25.1763C75.0917 30.1235 77.6287 34.1321 81.622 34.1321C86.2039 34.127 88.1524 30.1185 88.1524 25.1763ZM140.492 25.1763C140.492 31.6356 135.585 36.867 128.466 36.867C121.109 36.867 116.441 31.6305 116.441 25.1763C116.441 18.7169 121.347 13.4855 128.466 13.4855C135.824 13.4805 140.492 18.7169 140.492 25.1763ZM134.997 25.1763C134.997 20.229 132.459 16.2205 128.466 16.2205C124.123 16.2205 121.936 20.229 121.936 25.1763C121.936 30.1235 124.473 34.1321 128.466 34.1321C133.048 34.127 134.997 30.1185 134.997 25.1763ZM220.257 25.1763C220.257 31.6356 215.35 36.867 208.231 36.867C200.879 36.867 196.205 31.6305 196.205 25.1763C196.205 18.7169 201.112 13.4855 208.231 13.4855C215.583 13.4805 220.257 18.7169 220.257 25.1763ZM214.761 25.1763C214.761 20.229 212.224 16.2205 208.231 16.2205C203.893 16.2205 201.701 20.229 201.701 25.1763C201.701 30.1235 204.238 34.1321 208.231 34.1321C212.808 34.127 214.761 30.1185 214.761 25.1763ZM178.233 35.7609C178.421 36.2125 178.187 36.5879 177.781 36.6082L173.55 36.6184C173.113 36.6437 172.895 36.3089 172.748 35.8623L170.657 30.1185H162.524L160.555 35.8522C160.408 36.2987 160.189 36.6336 159.753 36.6082H156.851C156.445 36.5879 156.211 36.2125 156.399 35.7609L164.548 15.0382C164.573 14.3431 164.827 13.8915 165.406 13.8204C166.177 13.7291 168.425 13.5008 168.425 13.5008C168.942 13.4551 169.394 13.719 169.551 14.135L178.233 35.7609ZM169.602 27.211L166.623 19.0265L166.613 19.0112H166.349L163.533 27.2161H169.602V27.211ZM45.7278 13.5769H42.2622C41.8461 13.5769 41.5112 13.9219 41.5112 14.3431V35.842C41.5112 36.2886 41.8766 36.6387 42.3129 36.6184H45.7633C46.1642 36.5981 46.4788 36.2581 46.4788 35.842V14.3481C46.4788 13.9219 46.1439 13.5769 45.7278 13.5769ZM240 29.6872C240 35.2484 234.764 36.867 230.831 36.867C226.899 36.867 225.513 36.522 224.6 36.4408C224.169 36.4002 223.798 36.116 223.798 35.6847V14.8302C223.798 14.4141 224.133 14.0792 224.549 14.0792C224.549 14.0792 227.837 13.4805 230.623 13.4805C233.17 13.4805 238.615 14.1401 238.615 19.0671C238.615 21.254 237.199 22.7914 235.52 23.8519V24.2579C237.818 25.2016 240 26.9725 240 29.6872ZM228.766 23.4156H230.009C231.775 23.4156 233.845 22.2282 233.845 19.5389C233.845 17.2657 232.404 16.0835 230.248 16.0835C229.847 16.0835 229.314 16.1444 228.761 16.2256V23.4156H228.766ZM234.627 29.9409C234.627 27.4545 232.805 26.0693 230.177 26.0693H228.766V34.1016C229.228 34.1828 229.791 34.2538 230.385 34.2538C232.967 34.2538 234.627 32.5845 234.627 29.9409ZM67.2319 21.2946C67.2319 25.3995 63.7865 28.7281 58.9256 28.7281C58.1188 28.7281 57.3221 28.652 56.6219 28.5556V35.8725C56.6219 36.2886 56.287 36.6235 55.8709 36.6235H52.4053C51.9893 36.6235 51.6544 36.2886 51.6544 35.8725V14.9317C51.6544 14.4953 52.0349 14.2923 52.451 14.1756C53.6333 13.8407 55.7948 13.4805 58.1188 13.4805C62.7666 13.4805 67.2319 15.7334 67.2319 21.2946ZM62.1222 21.0409C62.1222 18.6358 60.6457 16.6366 58.0579 16.6366C57.52 16.6366 57.0278 16.7076 56.6168 16.7939V25.9526C57.1141 26.0186 57.7027 26.0744 58.2964 26.0744C61.1632 26.0744 62.1222 23.2887 62.1222 21.0409ZM38.8676 28.789C38.8676 34.3503 34.8794 36.867 29.7545 36.867C27.4306 36.867 25.269 36.5118 24.0868 36.1769C23.6656 36.0552 23.2851 35.8522 23.2851 35.4209V14.3278C23.2851 13.9118 23.6199 13.5769 24.036 13.5769H27.5016C27.9177 13.5769 28.2526 13.9118 28.2526 14.3278V21.528C28.9528 21.4265 29.7545 21.3555 30.5562 21.3555C36.1378 21.3555 38.8676 24.6841 38.8676 28.789ZM33.758 29.0427C33.758 26.7949 33.0375 24.0092 29.9321 24.0092C29.3385 24.0092 28.7499 24.065 28.2526 24.131V33.5587C28.6585 33.645 29.1507 33.716 29.6886 33.716C32.2814 33.7109 33.758 31.4479 33.758 29.0427ZM113.32 29.058C113.32 34.6192 109.154 36.867 104.029 36.867C101.705 36.867 99.2748 36.5118 98.0976 36.1769C97.6765 36.0552 97.2959 35.8522 97.2959 35.4209V14.3278C97.2959 13.9118 97.6308 13.5769 98.0469 13.5769H99.4423H111.021C111.356 13.5769 111.6 13.9016 111.503 14.2264L111.103 15.571C110.925 16.1596 110.382 16.5655 109.768 16.5655H102.258V21.8274C103.05 21.7157 103.953 21.6295 104.831 21.6295C110.412 21.6244 113.32 24.953 113.32 29.058ZM108.215 29.2203C108.215 26.9725 107.551 24.2731 104.212 24.2731C103.552 24.2731 102.852 24.339 102.263 24.4152V33.5181C102.756 33.6247 103.354 33.7109 103.968 33.7109C106.795 33.7109 108.215 31.6255 108.215 29.2203ZM13.0455 16.5655C15.0143 16.5655 16.5416 17.1846 17.5107 17.5651C17.9014 17.7173 18.348 17.555 18.5357 17.1846L19.1649 15.9414C19.3628 15.5558 19.1953 15.089 18.7996 14.8961C16.9526 13.998 15.0599 13.4805 12.599 13.4805C4.98277 13.4805 0 18.7169 0 25.1712C0 32.3257 4.96755 36.8619 12.599 36.8619C15.9428 36.8619 17.8 35.9384 18.8198 35.3854C19.1953 35.1824 19.3425 34.7308 19.1547 34.3553L18.4647 32.9853C18.2718 32.6048 17.8 32.4424 17.4042 32.6149C16.5162 33.0107 15.1868 33.6044 12.9542 33.6044C8.20482 33.6044 5.25677 30.1134 5.25677 25.1712C5.25677 20.229 7.92575 16.5655 13.0455 16.5655Z" fill="#FEFEFE"/>
<mask id="mask0_840_4554" style="mask-type:luminance" maskUnits="userSpaceOnUse" x="73" y="0" width="18" height="11">
<path d="M88.3559 3.73768C88.2545 3.98631 88.2037 4.25017 88.1783 4.50387C87.7014 3.82394 86.7069 3.67679 86.7069 3.67679C86.7069 3.67679 86.4481 4.67639 86.9149 5.38676C87.1128 5.68106 87.402 5.87895 87.676 6.01088C87.4274 6.22907 85.5398 7.7513 82.3736 6.33055V4.99606C82.678 4.97576 83.0332 4.90472 83.3275 4.69669C84.0277 4.21465 84.1546 3.18968 84.1546 3.18968C84.1546 3.18968 83.1804 2.95627 82.4801 3.41294C82.5562 3.16431 82.6019 2.90553 82.6019 2.6366C82.6019 1.41374 81.6175 0.515625 81.6175 0.515625C81.6175 0.515625 80.6382 1.41374 80.6382 2.6366C80.6382 2.90553 80.689 3.16938 80.76 3.41294C80.0649 2.95627 79.0856 3.18968 79.0856 3.18968C79.0856 3.18968 79.2124 4.21465 79.9126 4.69669C80.2069 4.90472 80.5621 4.97576 80.8666 4.99606V6.33055C77.6953 7.7513 75.8128 6.22907 75.5641 6.01088C75.8381 5.87895 76.1274 5.68106 76.3252 5.38676C76.7921 4.67639 76.5333 3.67679 76.5333 3.67679C76.5333 3.67679 75.5388 3.82394 75.0618 4.50387C75.0415 4.24509 74.9857 3.98631 74.8893 3.73768C74.4377 2.60108 73.1895 2.12919 73.1895 2.12919L74.8335 6.23921L76.1882 10.5928C78.9435 9.75557 81.6175 9.75557 81.6175 9.75557C81.6175 9.75557 84.2916 9.75557 87.0468 10.5928L88.4016 6.23921L90.0456 2.12919C90.0507 2.12919 88.8075 2.60108 88.3559 3.73768Z" fill="white"/>
</mask>
<g mask="url(#mask0_840_4554)">
<path d="M90.0554 0.503906H73.1992V10.5861H90.0554V0.503906Z" fill="url(#paint0_linear_840_4554)"/>
</g>
<defs>
<linearGradient id="paint0_linear_840_4554" x1="90.1229" y1="5.54695" x2="73.5711" y2="5.54695" gradientUnits="userSpaceOnUse">
<stop stop-color="#D3B274"/>
<stop offset="0.46" stop-color="#D3B274"/>
<stop offset="0.56" stop-color="#F3DEB5"/>
<stop offset="1" stop-color="#F3DEB5"/>
</linearGradient>
</defs>
</svg>
