<svg width="15" height="18" viewBox="0 0 15 18" fill="none" xmlns="http://www.w3.org/2000/svg">
<path fill-rule="evenodd" clip-rule="evenodd" d="M-7.86805e-07 9C-8.45814e-07 8.32502 0.516594 7.77783 1.15385 7.77783L11.0605 7.77783L5.68723 2.08637C5.23662 1.60909 5.23662 0.835252 5.68723 0.357967C6.13783 -0.11932 6.86841 -0.119321 7.31901 0.357967L14.662 8.1358C15.1127 8.61308 15.1127 9.38692 14.662 9.8642L7.31901 17.642C6.86841 18.1193 6.13784 18.1193 5.68723 17.642C5.23663 17.1647 5.23663 16.3909 5.68723 15.9136L11.0605 10.2222L1.15385 10.2222C0.516594 10.2222 -7.27796e-07 9.67499 -7.86805e-07 9Z" fill="#FFFDF8"/>
</svg>
