<svg width="70" height="106" viewBox="0 0 70 106" fill="none" xmlns="http://www.w3.org/2000/svg">
<path d="M70 71.778C70 90.5776 55.7194 105.803 35 105.803C13.5865 105.803 0 90.5628 0 71.778C0 52.9784 14.2806 37.7527 35 37.7527C56.4135 37.7379 70 52.9784 70 71.778ZM54.0063 71.778C54.0063 57.3793 46.6224 45.7126 35 45.7126C22.3586 45.7126 15.9937 57.3793 15.9937 71.778C15.9937 86.1768 23.3776 97.8434 35 97.8434C48.3354 97.8287 54.0063 86.162 54.0063 71.778Z" fill="#D4B375"/>
<mask id="mask0_1392_2882" style="mask-type:luminance" maskUnits="userSpaceOnUse" x="10" y="0" width="50" height="30">
<path d="M54.5973 9.37764C54.302 10.1013 54.1543 10.8692 54.0804 11.6076C52.6922 9.6287 49.7977 9.20043 49.7977 9.20043C49.7977 9.20043 49.0446 12.1097 50.4032 14.1772C50.9792 15.0338 51.8209 15.6097 52.6184 15.9937C51.8948 16.6287 46.4011 21.0591 37.1859 16.9241V13.0401C38.072 12.981 39.1058 12.7743 39.9623 12.1688C42.0003 10.7658 42.3695 7.7827 42.3695 7.7827C42.3695 7.7827 39.534 7.10338 37.496 8.43249C37.7176 7.70886 37.8505 6.9557 37.8505 6.173C37.8505 2.61392 34.9855 0 34.9855 0C34.9855 0 32.1353 2.61392 32.1353 6.173C32.1353 6.9557 32.283 7.72363 32.4897 8.43249C30.4665 7.10338 27.6163 7.7827 27.6163 7.7827C27.6163 7.7827 27.9855 10.7658 30.0235 12.1688C30.88 12.7743 31.9138 12.981 32.7998 13.0401V16.9241C23.5699 21.0591 18.091 16.6287 17.3673 15.9937C18.1648 15.6097 19.0066 15.0338 19.5825 14.1772C20.9412 12.1097 20.188 9.20043 20.188 9.20043C20.188 9.20043 17.2935 9.6287 15.9053 11.6076C15.8462 10.8544 15.6838 10.1013 15.4032 9.37764C14.0889 6.06962 10.456 4.6962 10.456 4.6962L15.2408 16.6582L19.1838 29.3291C27.2028 26.8924 34.9855 26.8924 34.9855 26.8924C34.9855 26.8924 42.7682 26.8924 50.7872 29.3291L54.7302 16.6582L59.515 4.6962C59.5298 4.6962 55.9117 6.06962 54.5973 9.37764Z" fill="white"/>
</mask>
<g mask="url(#mask0_1392_2882)">
<path d="M59.5436 -0.0285645H10.4845V29.3153H59.5436V-0.0285645Z" fill="#D3B274"/>
</g>
</svg>
