<svg width="79" height="120" viewBox="0 0 79 120" fill="none" xmlns="http://www.w3.org/2000/svg">
<path d="M79 81.0066C79 102.223 62.8833 119.407 39.5 119.407C15.3333 119.407 0 102.207 0 81.0066C0 59.79 16.1166 42.6066 39.5 42.6066C63.6667 42.59 79 59.79 79 81.0066ZM60.95 81.0066C60.95 64.7566 52.6167 51.59 39.5 51.59C25.2333 51.59 18.05 64.7566 18.05 81.0066C18.05 97.2566 26.3833 110.423 39.5 110.423C54.55 110.407 60.95 97.24 60.95 81.0066Z" fill="#FEFEFE"/>
<mask id="mask0_961_3205" style="mask-type:luminance" maskUnits="userSpaceOnUse" x="11" y="0" width="57" height="34">
<path d="M61.6168 10.5833C61.2835 11.4 61.1168 12.2667 61.0335 13.1C59.4668 10.8667 56.2002 10.3833 56.2002 10.3833C56.2002 10.3833 55.3502 13.6667 56.8835 16C57.5335 16.9667 58.4835 17.6167 59.3835 18.05C58.5668 18.7667 52.3668 23.7667 41.9668 19.1V14.7167C42.9668 14.65 44.1335 14.4167 45.1002 13.7333C47.4002 12.15 47.8168 8.78334 47.8168 8.78334C47.8168 8.78334 44.6168 8.01667 42.3168 9.51667C42.5668 8.7 42.7168 7.85 42.7168 6.96667C42.7168 2.95 39.4835 0 39.4835 0C39.4835 0 36.2668 2.95 36.2668 6.96667C36.2668 7.85 36.4335 8.71667 36.6668 9.51667C34.3835 8.01667 31.1668 8.78334 31.1668 8.78334C31.1668 8.78334 31.5835 12.15 33.8835 13.7333C34.8502 14.4167 36.0168 14.65 37.0168 14.7167V19.1C26.6002 23.7667 20.4168 18.7667 19.6002 18.05C20.5002 17.6167 21.4502 16.9667 22.1002 16C23.6335 13.6667 22.7835 10.3833 22.7835 10.3833C22.7835 10.3833 19.5168 10.8667 17.9502 13.1C17.8835 12.25 17.7002 11.4 17.3835 10.5833C15.9002 6.85 11.8002 5.3 11.8002 5.3L17.2002 18.8L21.6502 33.1C30.7002 30.35 39.4835 30.35 39.4835 30.35C39.4835 30.35 48.2668 30.35 57.3168 33.1L61.7668 18.8L67.1668 5.3C67.1835 5.3 63.1002 6.85 61.6168 10.5833Z" fill="white"/>
</mask>
<g mask="url(#mask0_961_3205)">
<path d="M67.1995 -0.0323486H11.8328V33.0843H67.1995V-0.0323486Z" fill="url(#paint0_linear_961_3205)"/>
</g>
<defs>
<linearGradient id="paint0_linear_961_3205" x1="67.4211" y1="16.5323" x2="13.0544" y2="16.5323" gradientUnits="userSpaceOnUse">
<stop stop-color="#D3B274"/>
<stop offset="0.46" stop-color="#D3B274"/>
<stop offset="0.56" stop-color="#F3DEB5"/>
<stop offset="1" stop-color="#F3DEB5"/>
</linearGradient>
</defs>
</svg>
