<svg width="95" height="101" viewBox="0 0 95 101" fill="none" xmlns="http://www.w3.org/2000/svg">
<path d="M89.2696 25.0696H86.4024V18.6614V6.55574C86.4024 3.05179 83.5528 0.200195 80.0469 0.200195H14.0539C10.548 0.200195 7.69833 3.05179 7.69833 6.55574V18.6594V25.0696H4.83111C2.27835 25.0696 0.200195 27.1478 0.200195 29.7006V40.9761C0.200195 43.5289 2.27639 45.607 4.83111 45.607H7.69833V52.0172V82.9688C7.69833 86.4727 10.5499 89.3243 14.0539 89.3243H15.2336V96.4592C15.2336 98.5237 16.9133 100.203 18.9778 100.203H30.5033C32.5678 100.203 34.2475 98.5237 34.2475 96.4592V89.3243H59.863V96.4592C59.863 98.5237 61.5427 100.203 63.6072 100.203H75.1328C77.1972 100.203 78.8769 98.5237 78.8769 96.4592V89.3243H80.0488C83.5528 89.3243 86.4044 86.4727 86.4044 82.9688V52.0153V45.605H89.2716C91.8244 45.605 93.9025 43.5269 93.9025 40.9741V29.6986C93.9006 27.1478 91.8244 25.0696 89.2696 25.0696ZM14.0539 2.49124H80.0469C82.2891 2.49124 84.1133 4.31548 84.1133 6.55769V13.4836C82.8672 12.3468 81.2109 11.6535 79.3965 11.6535H14.7043C12.8898 11.6535 11.2335 12.3468 9.98742 13.4836V6.55574C9.98742 4.31353 11.8117 2.49124 14.0539 2.49124ZM4.83111 43.316C3.54008 43.316 2.49124 42.2652 2.49124 40.9761V29.7006C2.49124 28.4095 3.54203 27.3607 4.83111 27.3607H7.69833V43.316H4.83111ZM31.9564 96.4572C31.9564 97.258 31.3041 97.9104 30.5033 97.9104H18.9778C18.177 97.9104 17.5246 97.258 17.5246 96.4572V89.3224H31.9584V96.4572H31.9564ZM76.5839 96.4572C76.5839 97.258 75.9316 97.9104 75.1308 97.9104H63.6053C62.8045 97.9104 62.1521 97.258 62.1521 96.4572V89.3224H76.5859V96.4572H76.5839ZM80.0469 87.0333H78.875H59.8611H34.2475H15.2336H14.0539C11.8117 87.0333 9.98742 85.2091 9.98742 82.9668V57.1931C11.2335 58.3298 12.8898 59.0232 14.7043 59.0232H79.3945C81.209 59.0232 82.8653 58.3298 84.1114 57.1931V82.9668C84.1133 85.2091 82.2891 87.0333 80.0469 87.0333ZM84.1133 52.0153C84.1133 54.6169 81.9981 56.7321 79.3965 56.7321H14.7043C12.1027 56.7321 9.98742 54.6149 9.98742 52.0153V45.605V25.0696V18.6614C9.98742 16.0598 12.1027 13.9445 14.7043 13.9445H79.3945C81.9961 13.9445 84.1114 16.0617 84.1114 18.6614V25.0716V45.609V52.0153H84.1133ZM91.6115 40.9761C91.6115 42.2671 90.5607 43.316 89.2716 43.316H86.4044V27.3607H89.2716C90.5626 27.3607 91.6115 28.4115 91.6115 29.7006V40.9761Z" fill="#57504C"/>
<path fill-rule="evenodd" clip-rule="evenodd" d="M94.1023 29.6984V40.9739C94.1023 43.6372 91.9346 45.8049 89.2714 45.8049H86.6042V82.9686C86.6042 86.583 83.663 89.5241 80.0486 89.5241H79.0767V96.459C79.0767 98.6339 77.3075 100.403 75.1326 100.403H63.607C61.4321 100.403 59.6628 98.6339 59.6628 96.459V89.5241H34.4473V96.459C34.4473 98.6339 32.678 100.403 30.5031 100.403H18.9776C16.8026 100.403 15.0334 98.6339 15.0334 96.459V89.5241H14.0537C10.4393 89.5241 7.49814 86.583 7.49814 82.9686V45.8068H4.83092C2.16569 45.8068 0 43.6391 0 40.9759V29.7004C0 27.0371 2.16769 24.8694 4.83092 24.8694H7.49814V6.55555C7.49814 2.94118 10.4373 0 14.0537 0H80.0467C83.6631 0 86.6022 2.94118 86.6022 6.55555V24.8694H89.2694C91.9346 24.8694 94.1003 27.0373 94.1023 29.6984ZM31.7562 96.257H31.7582V89.5222H17.7244V96.457C17.7244 97.1474 18.2872 97.7102 18.9776 97.7102H30.5031C31.1934 97.7102 31.7562 97.1474 31.7562 96.457V96.257ZM31.9562 96.457H31.9582V89.3222H17.5244V96.457C17.5244 97.2578 18.1768 97.9102 18.9776 97.9102H30.5031C31.3039 97.9102 31.9562 97.2578 31.9562 96.457ZM76.3837 96.257H76.3857V89.5222H62.3519V96.457C62.3519 97.1474 62.9147 97.7102 63.6051 97.7102H75.1306C75.8209 97.7102 76.3837 97.1474 76.3837 96.457V96.257ZM76.5837 96.457H76.5857V89.3222H62.1519V96.457C62.1519 97.2578 62.8043 97.9102 63.6051 97.9102H75.1306C75.9314 97.9102 76.5837 97.2578 76.5837 96.457ZM84.1112 82.9666V57.1929C84.0456 57.2527 83.979 57.3112 83.9112 57.3685C82.6904 58.4006 81.1134 59.023 79.3943 59.023H14.7041C12.985 59.023 11.408 58.4006 10.1872 57.3685C10.1195 57.3112 10.0528 57.2527 9.98723 57.1929V82.9666C9.98723 85.2088 11.8115 87.0331 14.0537 87.0331H80.0467C82.2889 87.0331 84.1131 85.2088 84.1112 82.9666ZM10.1872 57.6279V82.9666C10.1872 85.0984 11.9219 86.8331 14.0537 86.8331H80.0467C82.1785 86.8331 83.913 85.0984 83.9112 82.9668V57.6279C82.6746 58.6254 81.1025 59.223 79.3943 59.223H14.7041C12.9959 59.223 11.4239 58.6254 10.1872 57.6279ZM83.9112 52.1489V18.6612C83.9112 16.1719 81.8854 14.1443 79.3943 14.1443H14.7041C12.2129 14.1443 10.1872 16.17 10.1872 18.6612V52.0151C10.1872 54.5043 12.213 56.5319 14.7041 56.5319H79.3963C81.8427 56.5319 83.8402 54.5784 83.9112 52.1489ZM84.1089 52.2151C84.0039 54.7242 81.9309 56.7319 79.3963 56.7319H14.7041C12.1025 56.7319 9.98723 54.6147 9.98723 52.0151V18.6612C9.98723 16.0596 12.1025 13.9443 14.7041 13.9443H79.3943C81.9959 13.9443 84.1112 16.0615 84.1112 18.6612V52.0151H84.1131C84.1131 52.0608 84.1125 52.1064 84.1112 52.1519C84.1106 52.173 84.1098 52.194 84.1089 52.2151ZM80.0467 2.69104H14.0537C11.9218 2.69104 10.1872 4.42391 10.1872 6.55555V13.0483C11.4239 12.0509 12.9959 11.4533 14.7041 11.4533H79.3963C81.1045 11.4533 82.6765 12.0509 83.9131 13.0483V6.5575C83.9131 4.42574 82.1784 2.69104 80.0467 2.69104ZM83.9131 13.3077C82.6923 12.2756 81.1153 11.6533 79.3963 11.6533H14.7041C12.985 11.6533 11.408 12.2756 10.1872 13.3077C10.1195 13.365 10.0528 13.4236 9.98723 13.4834V6.55555C9.98723 4.31333 11.8115 2.49104 14.0537 2.49104H80.0467C82.2889 2.49104 84.1131 4.31528 84.1131 6.5575V13.4834C84.0476 13.4236 83.9809 13.365 83.9131 13.3077ZM2.69104 40.9759C2.69104 42.1546 3.65045 43.1158 4.83092 43.1158H7.49814V27.5605H4.83092C3.65219 27.5605 2.69104 28.5199 2.69104 29.7004V40.9759ZM89.2714 43.1158C90.4501 43.1158 91.4113 42.1564 91.4113 40.9759V29.7004C91.4113 28.5216 90.4519 27.5605 89.2714 27.5605H86.6042V43.1158H89.2714ZM89.2694 25.0694C91.8242 25.0694 93.9004 27.1476 93.9023 29.6984V40.9739C93.9023 43.5267 91.8242 45.6049 89.2714 45.6049H86.4042V82.9686C86.4042 86.4725 83.5526 89.3241 80.0486 89.3241H78.8767V96.459C78.8767 98.5235 77.197 100.203 75.1326 100.203H63.607C61.5425 100.203 59.8628 98.5235 59.8628 96.459V89.3241H34.2473V96.459C34.2473 98.5235 32.5676 100.203 30.5031 100.203H18.9776C16.9131 100.203 15.2334 98.5235 15.2334 96.459V89.3241H14.0537C10.5497 89.3241 7.69814 86.4725 7.69814 82.9686V45.6068H4.83092C2.2762 45.6068 0.2 43.5287 0.2 40.9759V29.7004C0.2 27.1476 2.27815 25.0694 4.83092 25.0694H7.69814V6.55555C7.69814 3.0516 10.5478 0.2 14.0537 0.2H80.0467C83.5526 0.2 86.4022 3.0516 86.4022 6.55555V25.0694H89.2694ZM2.49104 40.9759C2.49104 42.265 3.53988 43.3158 4.83092 43.3158H7.69814V27.3605H4.83092C3.54184 27.3605 2.49104 28.4093 2.49104 29.7004V40.9759ZM89.2714 43.3158C90.5605 43.3158 91.6113 42.2669 91.6113 40.9759V29.7004C91.6113 28.4113 90.5624 27.3605 89.2714 27.3605H86.4042V43.3158H89.2714Z" fill="#57504C"/>
<path d="M28.1339 67.5327H16.3779C15.7451 67.5327 15.2334 68.0444 15.2334 68.6773V75.1402C15.2334 75.7731 15.7451 76.2848 16.3779 76.2848H28.1339C28.7668 76.2848 29.2785 75.7731 29.2785 75.1402V68.6773C29.2804 68.0444 28.7668 67.5327 28.1339 67.5327ZM26.9894 73.9957H17.5244V69.8218H26.9894V73.9957Z" fill="#57504C"/>
<path fill-rule="evenodd" clip-rule="evenodd" d="M16.3777 67.3325H28.1337C28.8764 67.3325 29.4804 67.9332 29.4783 68.6774L29.2783 68.6771C29.2802 68.0442 28.7666 67.5325 28.1337 67.5325H16.3777C15.7449 67.5325 15.2332 68.0442 15.2332 68.6771V75.14C15.2332 75.7729 15.7449 76.2846 16.3777 76.2846H28.1337C28.7666 76.2846 29.2783 75.7729 29.2783 75.14V68.6771M29.4783 68.6774V75.14C29.4783 75.8833 28.877 76.4846 28.1337 76.4846H16.3777C15.6345 76.4846 15.0332 75.8833 15.0332 75.14V68.6771C15.0332 67.9338 15.6345 67.3325 16.3777 67.3325M17.7242 73.7955H26.7892V70.0216H17.7242V73.7955ZM26.9892 73.9955V69.8216H17.5242V73.9955H26.9892Z" fill="#57504C"/>
<path d="M77.7306 67.5327H65.9746C65.3418 67.5327 64.8301 68.0444 64.8301 68.6773V75.1402C64.8301 75.7731 65.3418 76.2848 65.9746 76.2848H77.7306C78.3634 76.2848 78.8752 75.7731 78.8752 75.1402V68.6773C78.8752 68.0444 78.3615 67.5327 77.7306 67.5327ZM76.5841 73.9957H67.1192V69.8218H76.5841V73.9957Z" fill="#57504C"/>
<path fill-rule="evenodd" clip-rule="evenodd" d="M65.9744 67.3325H77.7304C78.4715 67.3325 79.075 67.9336 79.075 68.6771V75.14C79.075 75.8833 78.4737 76.4846 77.7304 76.4846H65.9744C65.2312 76.4846 64.6299 75.8833 64.6299 75.14V68.6771C64.6299 67.9338 65.2312 67.3325 65.9744 67.3325ZM67.319 73.7955H76.3839V70.0216H67.319V73.7955ZM65.9744 67.5325H77.7304C78.3613 67.5325 78.875 68.0442 78.875 68.6771V75.14C78.875 75.7729 78.3632 76.2846 77.7304 76.2846H65.9744C65.3416 76.2846 64.8299 75.7729 64.8299 75.14V68.6771C64.8299 68.0442 65.3416 67.5325 65.9744 67.5325ZM76.5839 73.9955V69.8216H67.119V73.9955H76.5839Z" fill="#57504C"/>
<path d="M61.0033 79.625H33.0967C32.4639 79.625 31.9521 80.1367 31.9521 80.7695C31.9521 81.4024 32.4639 81.9141 33.0967 81.9141H61.0013C61.6341 81.9141 62.1459 81.4024 62.1459 80.7695C62.1478 80.1367 61.6341 79.625 61.0033 79.625Z" fill="#57504C"/>
<path fill-rule="evenodd" clip-rule="evenodd" d="M33.0967 79.4248H61.0033C61.7441 79.4248 62.3478 80.0255 62.3459 80.7694C62.3459 80.7696 62.3459 80.7698 62.3459 80.77L62.1459 80.7694C62.1459 81.4022 61.6341 81.9139 61.0013 81.9139H33.0967C32.4639 81.9139 31.9521 81.4022 31.9521 80.7694C31.9521 80.1365 32.4639 79.6248 33.0967 79.6248H61.0033C61.6341 79.6248 62.1478 80.1365 62.1459 80.7694" fill="#57504C"/>
<path d="M28.4307 8.32718H65.6675C66.3003 8.32718 66.812 7.81545 66.812 7.18263C66.812 6.54981 66.3003 6.03809 65.6675 6.03809H28.4307C27.7979 6.03809 27.2861 6.54981 27.2861 7.18263C27.2861 7.81545 27.7998 8.32718 28.4307 8.32718Z" fill="#57504C"/>
<path fill-rule="evenodd" clip-rule="evenodd" d="M65.6673 8.52698H28.4305C27.6894 8.52698 27.0859 7.92594 27.0859 7.18244C27.0859 6.43916 27.6872 5.83789 28.4305 5.83789H65.6673C66.4105 5.83789 67.0118 6.43916 67.0118 7.18244C67.0118 7.92571 66.4105 8.52698 65.6673 8.52698ZM65.6673 8.32698H28.4305C27.7996 8.32698 27.2859 7.81526 27.2859 7.18244C27.2859 6.54962 27.7977 6.03789 28.4305 6.03789H65.6673C66.3001 6.03789 66.8118 6.54962 66.8118 7.18244C66.8118 7.81526 66.3001 8.32698 65.6673 8.32698Z" fill="#57504C"/>
</svg>
