<svg width="108" height="100" viewBox="0 0 108 100" fill="none" xmlns="http://www.w3.org/2000/svg">
<path d="M86.1479 59.8359C83.3068 59.8359 80.9951 62.1477 80.9951 64.9887C80.9951 67.8297 83.3068 70.1413 86.1479 70.1413C88.9889 70.1413 91.3006 67.8297 91.3006 64.9887C91.3006 62.1475 88.9889 59.8359 86.1479 59.8359ZM86.1479 66.982C85.0485 66.982 84.1542 66.0876 84.1542 64.9885C84.1542 63.8891 85.0485 62.9948 86.1479 62.9948C87.2472 62.9948 88.1416 63.8889 88.1416 64.9885C88.1414 66.0879 87.2472 66.982 86.1479 66.982Z" fill="#57504C"/>
<path d="M102.803 53.472H101.813V31.9765C101.813 31.1039 101.106 30.3969 100.233 30.3969H91.9974V12.9C91.9974 12.0275 91.2904 11.3205 90.4179 11.3205H67.2031L56.3454 0.462724C55.7283 -0.153961 54.7283 -0.153961 54.1114 0.462724L49.2277 5.34621L44.3438 0.462514C43.7271 -0.154171 42.7269 -0.154171 42.1097 0.462514L31.2522 11.3202H10.4118C4.67072 11.3202 0 15.991 0 21.7323V22.4388V23.1446V88.882C0 95.0125 4.98746 100 11.118 100H24.1996C25.0721 100 25.7792 99.293 25.7792 98.4205C25.7792 97.548 25.0721 96.841 24.1996 96.841H11.118C6.72955 96.841 3.15925 93.2704 3.15925 88.882V30.6045C5.03556 32.4291 7.59388 33.5562 10.4118 33.5562H61.5032C62.3757 33.5562 63.0827 32.8492 63.0827 31.9767C63.0827 31.1042 62.3757 30.3971 61.5032 30.3971H37.6743L50.8488 17.2229C53.506 18.9874 56.998 18.9872 59.6557 17.2226L72.8299 30.3971H67.8215C66.949 30.3971 66.242 31.1042 66.242 31.9767C66.242 32.8492 66.949 33.5562 67.8215 33.5562H98.6538V53.4718H84.8112C78.461 53.4718 73.2943 58.638 73.2943 64.9886C73.2943 71.3389 78.4606 76.5055 84.8112 76.5055H98.654V96.841H30.5177C29.6452 96.841 28.9382 97.548 28.9382 98.4205C28.9382 99.293 29.6452 100 30.5177 100H100.233C101.106 100 101.813 99.293 101.813 98.4205V76.5053H102.803C105.416 76.5053 107.542 74.3794 107.542 71.7665V58.2106C107.542 55.5976 105.416 53.472 102.803 53.472ZM16.6436 30.3969L21.1666 25.8741C21.7835 25.2572 21.7835 24.2572 21.1666 23.6401C20.5495 23.0234 19.5495 23.0234 18.9326 23.6401L12.1757 30.3969H11.1178C6.73417 30.3969 3.16681 26.8342 3.15904 22.4523V22.4386V21.7323C3.15904 17.7333 6.41239 14.4795 10.4116 14.4795H28.0934L23.4076 19.1653C22.7907 19.7824 22.7907 20.7824 23.4076 21.3993C24.0247 22.016 25.0247 22.016 25.6416 21.3993L43.2272 3.81353L46.9939 7.58002L24.1769 30.3969H16.6436ZM77.2975 30.3971L60.8836 13.983C60.2667 13.3663 59.2664 13.3663 58.6498 13.983C56.776 15.8565 53.7278 15.8567 51.854 13.9832C51.5579 13.6868 51.1559 13.5204 50.737 13.5204C50.3182 13.5204 49.9164 13.6868 49.62 13.983L33.206 30.3969H28.6452L50.3449 8.69723C50.3455 8.6966 50.3461 8.69576 50.3468 8.69513L55.2284 3.81353L65.4308 14.0159C65.4314 14.0166 65.4322 14.0174 65.4329 14.018L81.812 30.3971H77.2975ZM88.8385 30.3969H86.2796L70.3622 14.4795H88.8385V30.3969ZM104.383 71.7667C104.383 72.6378 103.674 73.3462 102.803 73.3462H84.811C80.2026 73.3462 76.4534 69.597 76.4534 64.9886C76.4534 60.3803 80.2026 56.631 84.811 56.631H102.803C103.674 56.631 104.383 57.3395 104.383 58.2106V71.7667Z" fill="#57504C"/>
</svg>
