<svg width="83" height="100" viewBox="0 0 83 100" fill="none" xmlns="http://www.w3.org/2000/svg">
<path d="M44.4189 75.876C43.61 75.876 42.9541 76.5318 42.9541 77.3408V79.2348C42.9541 80.0438 43.61 80.6996 44.4189 80.6996C45.2279 80.6996 45.8838 80.0438 45.8838 79.2348V77.3408C45.8838 76.5318 45.2277 75.876 44.4189 75.876Z" fill="#57504C"/>
<path d="M79.6531 89.9887H74.4664V25.6471H79.1566C80.0873 25.6471 80.9488 25.1437 81.4053 24.3338C81.8607 23.5252 81.8449 22.5299 81.3643 21.7363L76.0107 12.8984C75.5914 12.2066 74.6908 11.9854 73.9988 12.4045C73.3068 12.8236 73.0857 13.7244 73.5049 14.4164L78.5332 22.7176H51.1908V14.9562C51.1908 13.6998 50.5723 12.5232 49.5365 11.8094L43.9473 7.95742C43.2256 7.45996 42.3805 7.19707 41.5033 7.19707C40.6264 7.19707 39.7813 7.45996 39.0594 7.95742L33.4699 11.8094C32.4342 12.5234 31.8158 13.6998 31.8158 14.9561V22.7172H4.47324L16.4594 2.92969H66.5473L70.425 9.33164C70.8441 10.0234 71.7449 10.2449 72.4369 9.82559C73.1289 9.40645 73.35 8.50566 72.9309 7.81367L68.951 1.24316C68.4863 0.476367 67.6404 0 66.7432 0H16.2635C15.3662 0 14.5203 0.476172 14.0559 1.24297L1.64219 21.7363C1.16152 22.5301 1.1457 23.5254 1.60137 24.334C2.05762 25.1439 2.91934 25.6473 3.8498 25.6473H8.54004V54.8748C8.54004 55.6838 9.1959 56.3397 10.0049 56.3397C10.8139 56.3397 11.4697 55.6838 11.4697 54.8748V25.6471H71.5369V89.9885H50.4484V67.6795C50.4484 65.8695 48.976 64.3971 47.166 64.3971H35.8402C34.0303 64.3971 32.5578 65.8695 32.5578 67.6795V89.9887H11.4697V60.775C11.4697 59.966 10.8139 59.3102 10.0049 59.3102C9.1959 59.3102 8.54004 59.966 8.54004 60.775V89.9887H3.35313C1.5043 89.9887 0 91.493 0 93.3418V96.6469C0 98.4957 1.5043 100 3.35313 100H79.6531C81.502 100 83.0061 98.4957 83.0061 96.6469V93.3416C83.0065 91.4928 81.502 89.9887 79.6531 89.9887ZM48.2611 22.7174H34.7455V14.9562C34.7455 14.6633 34.8902 14.3887 35.1326 14.2217L40.7219 10.3697C41.1832 10.052 41.8234 10.0518 42.2848 10.3697L47.874 14.2217C48.1164 14.3887 48.2611 14.6635 48.2611 14.9562V22.7174ZM35.4877 67.6795C35.4877 67.485 35.6459 67.3268 35.8404 67.3268H47.1662C47.3607 67.3268 47.5189 67.485 47.5189 67.6795V89.9887H35.4877V67.6795ZM79.6535 97.0703H3.35313C3.11973 97.0703 2.92969 96.8803 2.92969 96.6469V93.3418C2.92969 93.1084 3.11973 92.9184 3.35313 92.9184H79.6531C79.8865 92.9184 80.0764 93.1082 80.0764 93.3416V96.6469H80.0766C80.0768 96.8803 79.8869 97.0703 79.6535 97.0703Z" fill="#57504C"/>
<path d="M15.3691 79.7024C15.3691 81.1097 16.5141 82.2546 17.9213 82.2546H25.1467C26.5539 82.2546 27.6988 81.1097 27.6988 79.7024V66.9491C27.6988 65.5419 26.5539 64.397 25.1467 64.397H17.9213C16.5141 64.397 15.3691 65.5419 15.3691 66.9491V79.7024ZM18.2988 67.3267H24.7689V79.3249H18.2988V67.3267Z" fill="#57504C"/>
<path d="M55.3086 79.7024C55.3086 81.1097 56.4535 82.2546 57.8607 82.2546H65.0861C66.4934 82.2546 67.6383 81.1097 67.6383 79.7024V66.9491C67.6383 65.5419 66.4934 64.397 65.0861 64.397H57.8607C56.4535 64.397 55.3086 65.5419 55.3086 66.9491V79.7024ZM58.2381 67.3267H64.7082V79.3249H58.2381V67.3267Z" fill="#57504C"/>
<path d="M17.9213 53.5449H25.1467C26.5539 53.5449 27.6988 52.4 27.6988 50.9927V38.2394C27.6988 36.832 26.5539 35.6873 25.1467 35.6873H17.9213C16.5141 35.6873 15.3691 36.8322 15.3691 38.2394V50.9927C15.3691 52.4 16.5141 53.5449 17.9213 53.5449ZM18.2988 38.6169H24.7689V50.6152H18.2988V38.6169Z" fill="#57504C"/>
<path d="M65.0861 53.5449C66.4934 53.5449 67.6383 52.4 67.6383 50.9927V38.2394C67.6383 36.832 66.4934 35.6873 65.0861 35.6873H57.8607C56.4535 35.6873 55.3086 36.8322 55.3086 38.2394V50.9927C55.3086 52.4 56.4533 53.5449 57.8607 53.5449H65.0861ZM58.2383 38.6169H64.7084V50.6152H58.2383V38.6169Z" fill="#57504C"/>
<path d="M37.891 53.5449H45.1164C46.5236 53.5449 47.6686 52.4 47.6686 50.9927V38.2394C47.6686 36.832 46.5236 35.6873 45.1164 35.6873H37.891C36.4838 35.6873 35.3389 36.8322 35.3389 38.2394V50.9927C35.3393 52.4 36.484 53.5449 37.891 53.5449ZM38.2689 38.6169H44.7391V50.6152H38.2689V38.6169Z" fill="#57504C"/>
</svg>
