<svg width="89" height="100" viewBox="0 0 89 100" fill="none" xmlns="http://www.w3.org/2000/svg">
<path d="M59.8088 26.9148H11.9203C11.1078 26.9148 10.4492 27.5734 10.4492 28.3859C10.4492 29.1984 11.1078 29.857 11.9203 29.857H59.809C60.6215 29.857 61.2801 29.1984 61.2801 28.3859C61.2801 27.5734 60.6213 26.9148 59.8088 26.9148Z" fill="#57504C"/>
<path d="M11.9203 19.6526H35.8645C36.677 19.6526 37.3356 18.994 37.3356 18.1815C37.3356 17.369 36.677 16.7104 35.8645 16.7104H11.9203C11.1078 16.7104 10.4492 17.369 10.4492 18.1815C10.4492 18.9942 11.1078 19.6526 11.9203 19.6526Z" fill="#57504C"/>
<path d="M59.8088 35.9563H11.9203C11.1078 35.9563 10.4492 36.6149 10.4492 37.4274C10.4492 38.2399 11.1078 38.8985 11.9203 38.8985H59.809C60.6215 38.8985 61.2801 38.2399 61.2801 37.4274C61.2799 36.6149 60.6213 35.9563 59.8088 35.9563Z" fill="#57504C"/>
<path d="M22.8297 89.7789H7.50411C4.98867 89.7789 2.94199 87.7325 2.94199 85.217V7.50411C2.94199 4.98867 4.98867 2.94199 7.50411 2.94199H51.6557C51.7983 2.94199 51.9387 2.95508 52.0776 2.97383V12.1484C52.0776 16.2863 55.444 19.6525 59.5817 19.6525H68.7561C68.775 19.7916 68.7879 19.932 68.7879 20.0746V45.1256C68.7879 45.9381 69.4465 46.5967 70.259 46.5967C71.0715 46.5967 71.7301 45.9381 71.7301 45.1256V20.0748C71.7301 18.4611 71.1016 16.944 69.9606 15.8027L55.9274 1.76953C54.7864 0.628516 53.2694 0 51.6557 0H7.50411C3.36621 0 0 3.36641 0 7.50411V85.217C0 89.3547 3.36641 92.7209 7.50411 92.7209H22.8297C23.6422 92.7209 24.3008 92.0623 24.3008 91.2498C24.3008 90.4373 23.6422 89.7789 22.8297 89.7789ZM66.7076 16.7106H59.5819C57.0664 16.7106 55.0197 14.6639 55.0197 12.1484V5.02266L66.7076 16.7106Z" fill="#57504C"/>
<path d="M88.3257 72.0173L75.8612 50.9782C74.9528 49.4442 72.9759 48.9372 71.4411 49.8463L68.4092 51.6426C66.0559 53.0368 65.0612 55.8581 65.8692 58.3583C64.8477 58.7284 63.7278 58.7225 62.6966 58.3239C60.3028 57.5708 58.4829 56.0557 55.4772 56.8159C50.3737 58.1153 50.5288 58.0503 50.0671 58.2085C47.0788 56.5071 45.2825 56.0008 42.1102 57.228L39.2825 58.3212C37.9733 58.827 36.5307 58.7071 35.321 57.9903L34.5493 57.5354C34.9258 55.2792 33.9252 52.8981 31.8065 51.643C31.8065 51.643 31.8065 51.643 31.8063 51.6428L28.7747 49.8467C27.2442 48.9403 25.2614 49.4477 24.3547 50.9782L11.8899 72.0174C10.9815 73.551 11.487 75.5286 13.0213 76.4374L16.053 78.2335C16.9704 78.777 17.9786 79.0354 18.9747 79.0354C20.0854 79.0354 21.1805 78.7135 22.1168 78.1073L22.7487 78.4801L21.4147 80.3382C19.825 82.5526 20.3301 85.6319 22.545 87.2217C23.5692 87.9569 24.8559 88.2927 26.1866 88.0837C26.3977 89.3178 27.0739 90.4729 28.1688 91.2593C29.1971 91.9975 30.478 92.3337 31.811 92.1237C32.0227 93.3569 32.6985 94.511 33.7928 95.2968C35.2635 96.3524 37.092 96.4745 38.6157 95.8237C38.9491 96.6897 39.5286 97.4718 40.337 98.0522C42.4479 99.5673 45.3557 99.1721 46.996 97.2093L50.5409 99.3093C52.8852 100.699 55.91 99.9264 57.3001 97.5794C57.6555 96.9794 57.876 96.3255 57.9567 95.6534L57.9647 95.6583C60.3055 97.0446 63.3372 96.2684 64.7239 93.9282C65.1255 93.2503 65.3456 92.5149 65.3991 91.778C67.4624 92.2967 69.711 91.4301 70.8497 89.5083C71.2233 88.8778 71.4399 88.1968 71.5112 87.5114C73.7225 88.3792 76.3071 87.5405 77.5559 85.4327C78.2276 84.2989 78.4177 82.9716 78.0909 81.6948C77.904 80.9643 77.5602 80.3012 77.0884 79.7413L79.0423 78.5997C80.6952 79.2782 82.5815 79.1696 84.1624 78.2333L87.1936 76.4372C88.728 75.529 89.2348 73.5518 88.3257 72.0173ZM17.5526 75.7024L14.5209 73.9061C14.3862 73.8262 14.3415 73.6516 14.4211 73.5169L26.886 52.4772C26.9663 52.3418 27.1415 52.2979 27.2754 52.3776L30.3069 54.1735C31.654 54.9717 32.0754 56.6995 31.2918 58.0219L21.401 74.7173C20.6116 76.0501 18.8854 76.4917 17.5526 75.7024ZM24.2606 84.8317C23.3672 84.1903 23.1629 82.9477 23.8047 82.054L25.7655 79.3227C26.3901 78.4526 27.6348 78.2145 28.5432 78.8667C29.4348 79.5067 29.6393 80.7526 28.9995 81.6442L27.0385 84.3755C26.3985 85.2675 25.1518 85.4714 24.2606 84.8317ZM29.8846 88.8694C28.993 88.2292 28.7885 86.9829 29.4286 86.0915L31.3893 83.3604C31.3893 83.3604 31.3893 83.3604 31.3893 83.3602C31.3893 83.3602 31.3893 83.36 31.3895 83.36L33.5534 80.346C33.8635 79.9141 34.3231 79.6286 34.8477 79.5426C34.9567 79.5247 35.0659 79.5159 35.1743 79.5159C35.5872 79.5159 35.9889 79.6444 36.3311 79.8899C36.7627 80.2001 37.0483 80.6594 37.1342 81.1841C37.2204 81.7089 37.0971 82.2356 36.787 82.6674L32.6622 88.4132C32.0211 89.3067 30.7784 89.5112 29.8846 88.8694ZM35.5086 92.9067C34.6174 92.2669 34.4128 91.0216 35.0516 90.1302C35.0518 90.1298 35.0522 90.1294 35.0524 90.129L39.1772 84.3835C39.8169 83.4921 41.0637 83.2874 41.9549 83.9272C42.8465 84.5673 43.051 85.8134 42.411 86.705L40.5784 89.2579C40.5784 89.2579 40.5784 89.2579 40.5782 89.2581L38.2862 92.4507C37.6461 93.3423 36.4004 93.5471 35.5086 92.9067ZM42.0528 95.6622C41.1618 95.0223 40.9569 93.7776 41.5954 92.886L42.9682 90.9739C43.6081 90.0821 44.8547 89.8782 45.746 90.5178C46.6374 91.1577 46.8421 92.404 46.202 93.2956L44.8303 95.2059C44.1905 96.0977 42.944 96.3024 42.0528 95.6622ZM75.0253 83.9333C74.4655 84.878 73.2421 85.1913 72.2971 84.6317C70.6971 83.6839 60.376 77.5692 59.2757 76.9172C58.5764 76.5032 57.6743 76.7339 57.2602 77.4329C56.8462 78.1319 57.0768 79.0342 57.7758 79.4483L67.6202 85.2805L67.6204 85.2807C68.5655 85.8405 68.8807 87.0602 68.3188 88.0091C67.7589 88.9542 66.5348 89.2669 65.5903 88.7077C61.9493 86.5507 58.9928 84.7991 55.7407 82.8723C55.0413 82.4583 54.1393 82.6889 53.7253 83.388C53.3112 84.087 53.5419 84.9893 54.2409 85.4034L61.4944 89.7007L61.496 89.7016C62.4417 90.2632 62.7538 91.4823 62.193 92.4292C61.6331 93.3743 60.4094 93.6874 59.4643 93.1276L55.5715 90.8216C55.5712 90.8214 55.5706 90.8212 55.5702 90.8208C55.5698 90.8206 55.5694 90.8204 55.569 90.8202L52.7282 89.137C52.029 88.7227 51.1268 88.9534 50.7128 89.6526C50.2987 90.3516 50.5294 91.254 51.2284 91.668L54.0698 93.3514C54.0702 93.3516 54.0706 93.352 54.071 93.3522C55.0161 93.912 55.3313 95.1315 54.7694 96.0803C54.2094 97.0255 52.9858 97.3386 52.0407 96.7788L48.726 94.8153C50.1469 92.6227 49.6065 89.668 47.4618 88.1286C46.8319 87.6766 46.1305 87.3952 45.4131 87.2743C46.1741 85.2397 45.518 82.8643 43.6706 81.5382C42.5768 80.7526 41.2672 80.4813 40.0313 80.6751C39.8114 79.3889 39.1081 78.2624 38.0469 77.5008C36.0512 76.0686 33.3391 76.3438 31.6639 78.0385C31.3235 77.4407 30.8536 76.9044 30.259 76.4776C28.6006 75.2874 26.4475 75.2762 24.8057 76.2788L24.1317 75.8809L33.3836 60.2639L33.8241 60.5237C35.7694 61.676 38.1432 61.9163 40.3432 61.0655L43.171 59.9723C44.7891 59.3469 45.6815 59.3061 47.2821 60.0614C46.2348 61.238 45.6131 62.7827 45.6131 64.4475V70.97C45.6131 72.7024 47.0215 74.1128 48.7526 74.1139H48.7569C50.4932 74.1139 52.126 73.438 53.3544 72.2104C54.0704 71.4948 54.5989 70.6417 54.9157 69.7104C56.8151 70.8352 72.5079 80.128 74.3272 81.2059C74.7848 81.477 75.1094 81.91 75.2413 82.4253C75.3731 82.9399 75.2964 83.4757 75.0253 83.9333ZM85.6948 73.9061L82.663 75.7024C81.3302 76.4915 79.604 76.0495 78.8149 74.7174L74.179 66.8923C73.7647 66.1932 72.862 65.9626 72.1636 66.3762C71.4645 66.7903 71.2337 67.6926 71.6475 68.3917L76.2835 76.2171C76.3708 76.3643 76.4655 76.5044 76.5635 76.6409L75.2747 77.3938C75.0141 77.5481 74.7635 77.718 74.5239 77.9026L54.5389 66.0676C53.5598 65.4881 52.3184 66.1946 52.3184 67.3333C52.303 67.4212 52.4704 68.9333 51.2745 70.1288C50.6018 70.8008 49.7077 71.1712 48.7567 71.1712C48.7559 71.1712 48.7551 71.1712 48.7544 71.1712C48.6444 71.1712 48.5549 71.0805 48.5549 70.9692V64.4467C48.5549 62.7428 49.7272 61.3053 51.3126 60.904L56.1985 59.6674C57.9714 59.2194 58.9735 60.1661 61.628 61.0645C63.4708 61.7774 65.4745 61.7335 67.253 60.9739L68.1409 62.4727C68.5551 63.1721 69.4575 63.4026 70.1563 62.9887C70.8553 62.5747 71.0862 61.6723 70.6723 60.9733L68.9235 58.0215C68.1323 56.686 68.5731 54.9649 69.9085 54.1733L72.9401 52.3774C73.0725 52.2987 73.2477 52.3389 73.3298 52.4772L85.7942 73.5165C85.8747 73.6522 85.8304 73.8258 85.6948 73.9061Z" fill="#57504C"/>
</svg>
