<svg width="100" height="100" viewBox="0 0 100 100" fill="none" xmlns="http://www.w3.org/2000/svg">
<path d="M99.715 18.8848C99.715 12.7555 95.5308 7.44824 89.6596 5.97266C87.9006 2.31934 84.2443 0 80.1367 0H39.4609C35.5334 0 31.9787 2.15586 30.149 5.56543H13.3191C5.9748 5.56543 0 11.5404 0 18.8848V86.6816C0 94.0254 5.97461 100 13.3182 100H27.4236C28.2328 100 28.8885 99.3441 28.8885 98.5352C28.8885 97.7262 28.2328 97.0703 27.4236 97.0703H13.3184C7.59004 97.0703 2.92988 92.41 2.92988 86.6816V37.4668C2.92988 31.7385 7.59004 27.0781 13.3184 27.0781H36.5723C40.083 27.0781 43.3293 28.8301 45.2561 31.765L50.5703 39.8566C53.0402 43.6189 57.2021 45.8652 61.7031 45.8652H86.3965C92.1248 45.8652 96.785 50.5256 96.785 56.2539V86.6816C96.785 92.41 92.1248 97.0703 86.3965 97.0703H33.2832C32.474 97.0703 31.8184 97.7262 31.8184 98.5352C31.8184 99.3441 32.474 100 33.2832 100H86.3965C93.7402 100 99.7146 94.0254 99.7146 86.6816L99.715 18.8848ZM2.92949 29.1469V18.8848C2.92949 13.1559 7.59023 8.49512 13.3189 8.49512H29.0926C28.9572 9.17383 28.8885 9.86758 28.8885 10.5723V13.901H24.9184C19.1984 13.901 14.5281 18.4688 14.3543 24.1484H13.3184C9.12051 24.1484 5.37246 26.1027 2.92949 29.1469ZM53.0191 38.2486L47.7049 30.157C45.235 26.3947 41.073 24.1484 36.5723 24.1484H17.284C17.4561 20.0842 20.8139 16.8307 24.9184 16.8307H65.5937C69.808 16.8307 73.2365 20.2602 73.2365 24.4756V42.9355H61.7031C58.1924 42.9355 54.9461 41.1836 53.0191 38.2486ZM90.709 43.6562V20.3359C90.709 19.527 90.0533 18.8711 89.2441 18.8711C88.435 18.8711 87.7793 19.527 87.7793 20.3359V43.0074C87.3246 42.9604 86.8635 42.9355 86.3965 42.9355H76.1662V24.4756C76.1662 18.6447 71.4234 13.901 65.5937 13.901H31.8184V10.5723C31.8184 9.53984 32.0197 8.54082 32.4178 7.60098C33.6156 4.76328 36.3803 2.92969 39.4609 2.92969H80.1367C83.2994 2.92969 86.0926 4.83164 87.2512 7.77187C87.6016 8.66777 87.7793 9.60996 87.7793 10.5721V14.6131C87.7793 15.4221 88.435 16.0779 89.2441 16.0779C90.0533 16.0779 90.709 15.4221 90.709 14.6131V10.5723C90.709 10.1787 90.6848 9.78809 90.6418 9.40039C94.3078 11.0396 96.7851 14.7186 96.7851 18.885V47.9342C95.2207 45.9842 93.1203 44.484 90.709 43.6562Z" fill="#57504C"/>
<path d="M68.5616 24.3189C67.8471 23.939 66.9606 24.2107 66.5805 24.925L61.2157 35.0189L57.5063 30.4023C56.9999 29.7718 56.0778 29.6711 55.4469 30.1779C54.8161 30.6847 54.7157 31.6066 55.2225 32.2373L60.3241 38.5865C60.6038 38.9343 61.0245 39.1338 61.4659 39.1338C61.5116 39.1338 61.5577 39.1316 61.6038 39.1273C62.0942 39.081 62.5284 38.7914 62.7596 38.3564L69.1678 26.3C69.5473 25.5855 69.2762 24.6986 68.5616 24.3189Z" fill="#57504C"/>
<path d="M12.7588 54.9119H37.7445C38.5537 54.9119 39.2094 54.256 39.2094 53.447C39.2094 52.638 38.5537 51.9822 37.7445 51.9822H12.7588C11.9496 51.9822 11.2939 52.638 11.2939 53.447C11.2939 54.256 11.9498 54.9119 12.7588 54.9119Z" fill="#57504C"/>
<path d="M12.7588 60.332H37.7445C38.5537 60.332 39.2094 59.6762 39.2094 58.8672C39.2094 58.0582 38.5537 57.4023 37.7445 57.4023H12.7588C11.9496 57.4023 11.2939 58.0582 11.2939 58.8672C11.2939 59.6762 11.9498 60.332 12.7588 60.332Z" fill="#57504C"/>
</svg>
