<svg width="90" height="100" viewBox="0 0 90 100" fill="none" xmlns="http://www.w3.org/2000/svg">
<path d="M58.0426 16.5833C53.4723 16.5833 49.751 12.8654 49.751 8.29167C49.751 3.71798 53.4723 0 58.0426 0C62.613 0 66.3343 3.71798 66.3343 8.29167C66.3343 12.8654 62.613 16.5833 58.0426 16.5833ZM58.0426 3.31667C55.2998 3.31667 53.0676 5.54878 53.0676 8.29167C53.0676 11.0346 55.2998 13.2667 58.0426 13.2667C60.7855 13.2667 63.0176 11.0346 63.0176 8.29167C63.0176 5.54878 60.7855 3.31667 58.0426 3.31667Z" fill="#57504C"/>
<path d="M31.5085 16.5833C26.9381 16.5833 23.2168 12.8654 23.2168 8.29167C23.2168 3.71798 26.9381 0 31.5085 0C36.0788 0 39.8001 3.71798 39.8001 8.29167C39.8001 12.8654 36.0788 16.5833 31.5085 16.5833ZM31.5085 3.31667C28.7656 3.31667 26.5335 5.54878 26.5335 8.29167C26.5335 11.0346 28.7656 13.2667 31.5085 13.2667C34.2513 13.2667 36.4835 11.0346 36.4835 8.29167C36.4835 5.54878 34.2513 3.31667 31.5085 3.31667Z" fill="#57504C"/>
<path d="M81.258 99.5003C80.3426 99.5003 79.5997 98.7573 79.5997 97.8419V77.9419C79.5997 77.0265 80.3426 76.2836 81.258 76.2836C82.1734 76.2836 82.9163 77.0265 82.9163 77.9419C82.9163 78.854 83.6593 79.6003 84.5747 79.6003C85.4901 79.6003 86.233 78.854 86.233 77.9419V54.7253C86.233 50.994 83.1717 46.4336 79.5997 46.4336H67.9913C67.0759 46.4336 66.333 45.6907 66.333 44.7753C66.333 43.8599 67.0759 43.1169 67.9913 43.1169H79.5997C85.2015 43.1169 89.5497 49.3589 89.5497 54.7253V77.9419C89.5497 80.6848 87.3176 82.9169 84.5747 82.9169C83.9943 82.9169 83.4337 82.8174 82.9163 82.6317V97.8419C82.9163 98.7573 82.1734 99.5003 81.258 99.5003Z" fill="#57504C"/>
<path d="M61.3584 29.8504C61.3584 24.3646 65.8226 19.9004 71.3084 19.9004C76.7942 19.9004 81.2584 24.3646 81.2584 29.8504C81.2584 35.3362 76.7942 39.8004 71.3084 39.8004C65.8226 39.8004 61.3584 35.3362 61.3584 29.8504ZM64.6751 29.8504C64.6751 33.512 67.6468 36.4837 71.3084 36.4837C74.97 36.4837 77.9417 33.512 77.9417 29.8504C77.9417 26.1921 74.97 23.2171 71.3084 23.2171C67.6468 23.2171 64.6751 26.1921 64.6751 29.8504Z" fill="#57504C"/>
<path d="M81.2579 79.6002C82.1733 79.6002 82.9163 78.8573 82.9163 77.9419V58.0419C82.9163 57.1265 82.1733 56.3835 81.2579 56.3835C80.3425 56.3835 79.5996 57.1265 79.5996 58.0419V77.9419C79.5996 78.8573 80.3425 79.6002 81.2579 79.6002Z" fill="#57504C"/>
<path d="M71.3077 99.5003C72.2231 99.5003 72.9661 98.7574 72.9661 97.842V84.5753C72.9661 83.6599 72.2231 82.917 71.3077 82.917C70.3923 82.917 69.6494 83.6599 69.6494 84.5753V97.842C69.6494 98.7574 70.3923 99.5003 71.3077 99.5003Z" fill="#57504C"/>
<path d="M8.29167 99.5C7.37627 99.5 6.63333 98.7571 6.63333 97.8417V82.6315C6.11593 82.8172 5.55542 82.9167 4.975 82.9167C2.23212 82.9167 0 80.6846 0 77.9417V54.725C0 49.3587 4.34815 43.1167 9.95 43.1167H21.5583C22.4737 43.1167 23.2167 43.8596 23.2167 44.775C23.2167 45.6904 22.4737 46.4334 21.5583 46.4334H9.95C6.37795 46.4334 3.31667 50.9938 3.31667 54.725V77.9417C3.31667 78.8538 4.0596 79.6 4.975 79.6C5.8904 79.6 6.63333 78.8538 6.63333 77.9417C6.63333 77.0263 7.37627 76.2834 8.29167 76.2834C9.20707 76.2834 9.95 77.0263 9.95 77.9417V97.8417C9.95 98.7571 9.20707 99.5 8.29167 99.5Z" fill="#57504C"/>
<path d="M18.241 39.8001C12.7552 39.8001 8.29102 35.3359 8.29102 29.8501C8.29102 24.3644 12.7552 19.9001 18.241 19.9001C23.7268 19.9001 28.191 24.3644 28.191 29.8501C28.191 35.3359 23.7268 39.8001 18.241 39.8001ZM18.241 23.2168C14.5794 23.2168 11.6077 26.1919 11.6077 29.8501C11.6077 33.5117 14.5794 36.4835 18.241 36.4835C21.9026 36.4835 24.8743 33.5117 24.8743 29.8501C24.8743 26.1919 21.9026 23.2168 18.241 23.2168Z" fill="#57504C"/>
<path d="M8.29115 79.6002C7.37575 79.6002 6.63281 78.8573 6.63281 77.9419V58.0419C6.63281 57.1265 7.37575 56.3835 8.29115 56.3835C9.20655 56.3835 9.94948 57.1265 9.94948 58.0419V77.9419C9.94948 78.8573 9.20655 79.6002 8.29115 79.6002Z" fill="#57504C"/>
<path d="M18.2413 99.5003C17.3259 99.5003 16.583 98.7574 16.583 97.842V84.5753C16.583 83.6599 17.3259 82.917 18.2413 82.917C19.1567 82.917 19.8997 83.6599 19.8997 84.5753V97.842C19.8997 98.7574 19.1567 99.5003 18.2413 99.5003Z" fill="#57504C"/>
<path d="M54.7229 99.5C53.8075 99.5 53.0646 98.7571 53.0646 97.8417V61.3584C53.0646 60.443 53.8075 59.7 54.7229 59.7C56.4907 59.7 58.1391 58.7482 59.028 57.2159C59.4658 56.463 59.6979 55.604 59.6979 54.725V51.4084C59.6979 46.8347 55.9766 43.1167 51.4062 43.1167H36.4812C32.823 43.1167 29.8479 46.0918 29.8479 49.75V54.725C29.8479 57.4679 32.08 59.7 34.8229 59.7C35.7383 59.7 36.4812 60.443 36.4812 61.3584V97.8417C36.4812 98.7571 35.7383 99.5 34.8229 99.5C33.9075 99.5 33.1646 98.7571 33.1646 97.8417V62.8509C29.3836 62.0814 26.5312 58.7283 26.5312 54.725V49.75C26.5312 44.2643 30.9955 39.8 36.4812 39.8H51.4062C57.8074 39.8 63.0146 45.0072 63.0146 51.4084V54.725C63.0146 56.1844 62.6298 57.6238 61.8969 58.8808C60.6996 60.9438 58.6731 62.3766 56.3812 62.8476V97.8417C56.3812 98.7571 55.6383 99.5 54.7229 99.5Z" fill="#57504C"/>
<path d="M44.7732 36.4835C39.2875 36.4835 34.8232 32.0193 34.8232 26.5335C34.8232 21.0477 39.2875 16.5835 44.7732 16.5835C50.259 16.5835 54.7232 21.0477 54.7232 26.5335C54.7232 32.0193 50.259 36.4835 44.7732 36.4835ZM44.7732 19.9002C41.1116 19.9002 38.1399 22.8752 38.1399 26.5335C38.1399 30.1951 41.1116 33.1668 44.7732 33.1668C48.4348 33.1668 51.4066 30.1951 51.4066 26.5335C51.4066 22.8752 48.4348 19.9002 44.7732 19.9002Z" fill="#57504C"/>
<path d="M54.7234 58.0419C53.808 58.0419 53.065 57.299 53.065 56.3836V55.3255C53.065 54.8314 52.8561 54.3803 52.478 54.0586C52.0999 53.7369 51.619 53.6108 51.1381 53.6904L38.9593 55.7169C37.5066 55.9491 36.0439 55.5511 34.9262 54.6058C33.8052 53.6606 33.165 52.2742 33.165 50.8082C33.165 49.8928 33.908 49.1499 34.8234 49.1499C35.7388 49.1499 36.4817 49.8928 36.4817 50.8082C36.4817 51.3024 36.6907 51.7535 37.0688 52.0752C37.4469 52.3936 37.9311 52.5329 38.4153 52.4434L50.5908 50.4169C52.0336 50.1781 53.5028 50.5761 54.6206 51.5246C55.7383 52.4699 56.3817 53.8563 56.3817 55.3255V56.3836C56.3817 57.299 55.6388 58.0419 54.7234 58.0419Z" fill="#57504C"/>
<path d="M44.7736 99.5C43.8582 99.5 43.1152 98.7571 43.1152 97.8417V76.2833C43.1152 75.3679 43.8582 74.625 44.7736 74.625C45.689 74.625 46.4319 75.3679 46.4319 76.2833V97.8417C46.4319 98.7571 45.689 99.5 44.7736 99.5Z" fill="#57504C"/>
<path d="M54.7238 63.0169H41.4572C40.5418 63.0169 39.7988 62.2739 39.7988 61.3585C39.7988 60.4431 40.5418 59.7002 41.4572 59.7002H54.7238C55.6392 59.7002 56.3822 60.4431 56.3822 61.3585C56.3822 62.2739 55.6392 63.0169 54.7238 63.0169Z" fill="#57504C"/>
</svg>
