<svg width="104" height="101" viewBox="0 0 104 101" fill="none" xmlns="http://www.w3.org/2000/svg">
<path d="M28.4745 58.7892C32.3523 55.3263 34.384 50.2429 34.0495 44.8417C33.9355 43.0023 34.2651 41.7953 34.2661 41.7911C34.2845 41.7278 34.299 41.6633 34.3087 41.5976C34.8567 37.9516 38.7983 29.7086 40.6989 28.2343C42.346 26.9565 48.0588 22.756 50.5728 21.1235C51.406 20.5824 52.632 20.1026 53.7437 20.904C54.693 21.5884 54.8855 22.9709 54.1717 23.9868C54.059 24.1476 53.9865 24.324 53.945 24.5044L42.8507 34.2629C42.2395 34.801 42.1796 35.7326 42.7175 36.3444C43.0092 36.6757 43.4164 36.845 43.8253 36.845C44.1711 36.845 44.5184 36.724 44.799 36.4773L56.2048 26.4452L69.3232 15.011C69.3631 14.976 69.4011 14.9392 69.4373 14.9005C69.9056 14.3935 70.5434 14.0998 71.2331 14.0726C71.9175 14.0571 72.5811 14.2891 73.0882 14.7577C73.5952 15.226 73.8891 15.8643 73.9161 16.554C73.943 17.2434 73.7 17.902 73.2524 18.3867L59.2588 32.8976C58.6938 33.4841 58.7104 34.4175 59.2968 34.983C59.8833 35.5483 60.8165 35.5331 61.3822 34.945L75.3972 20.4115C75.5138 20.2855 75.6006 20.1413 75.7041 20.007C75.7704 19.9563 75.8471 19.9247 75.9059 19.8614L77.2345 18.4247C77.7028 17.9177 78.3407 17.624 79.0302 17.5968C79.7171 17.5788 80.3789 17.8133 80.8852 18.2818C81.3922 18.7502 81.6859 19.3885 81.7131 20.0782C81.7403 20.7676 81.497 21.4262 81.0283 21.9332C80.9573 22.0099 80.9237 22.1037 80.8721 22.1898C80.7187 22.3232 80.5565 22.4439 80.4164 22.5952L65.506 38.7194C64.9537 39.3174 64.9898 40.2505 65.5878 40.8036C65.8714 41.0658 66.2307 41.1954 66.5885 41.1954C66.9854 41.1954 67.3811 41.0365 67.6721 40.7218L82.5824 24.5977C83.0508 24.0914 83.6886 23.7975 84.3781 23.7705C85.0717 23.7387 85.7261 23.9864 86.2331 24.4554C86.7401 24.9239 87.0338 25.5615 87.061 26.2512C87.0882 26.9409 86.8452 27.5992 86.3762 28.1062L83.6557 31.0483L71.1935 44.2658C70.6347 44.8581 70.6623 45.7922 71.255 46.3508C71.8468 46.9085 72.7799 46.8813 73.3399 46.289L85.8219 33.0508C86.2683 32.568 86.8756 32.2879 87.533 32.2621C88.1812 32.2351 88.8172 32.4685 89.3005 32.9149C89.7833 33.3613 90.0634 33.9685 90.0892 34.626C90.1146 35.2834 89.8831 35.9113 89.4053 36.4292L68.585 60.4413C65.9354 63.2344 62.5082 65.1643 58.6726 66.0214C54.1876 67.0233 50.0827 69.5104 47.1152 73.024L28.553 95.0037L30.8349 96.874L49.369 74.9274C50.108 74.0523 50.9368 73.2615 51.8237 72.5439C52.714 73.2656 53.5525 74.0525 54.2908 74.9274L72.4489 96.4289L74.9022 94.7619L56.5443 73.0245C55.8768 72.2332 55.1311 71.512 54.3537 70.826C55.903 69.9515 57.5724 69.2893 59.3155 68.8995C63.7256 67.9143 67.6709 65.6911 70.7692 62.4224L74.4956 58.1251C74.7214 58.3518 74.948 58.5778 75.1858 58.7902L97.9409 79.1074L100.456 77.3984L77.1502 56.5898C76.9014 56.3671 76.6865 56.1081 76.4536 55.8667L91.6029 38.3962C92.584 37.3349 93.0933 35.9546 93.0369 34.5103C92.9804 33.066 92.3644 31.7299 91.3034 30.7484C90.6412 30.1359 89.8462 29.7312 88.9971 29.5093C89.6884 28.5241 90.057 27.358 90.0089 26.1351C89.9513 24.6585 89.3215 23.2925 88.236 22.2891C87.2374 21.3651 85.959 20.8699 84.6096 20.8422C84.6441 20.552 84.6725 20.2599 84.6607 19.9621C84.6031 18.4855 83.9733 17.119 82.8881 16.1154C81.8027 15.1124 80.3791 14.5828 78.9152 14.6492C78.1205 14.6805 77.3642 14.8894 76.6729 15.2333C76.4076 14.2288 75.8727 13.314 75.0911 12.5914C74.0063 11.5877 72.5943 11.0692 71.1177 11.1252C69.6692 11.1816 68.3274 11.7882 67.3302 12.8356L57.3994 21.4911C57.1363 20.3253 56.4941 19.2503 55.4677 18.5111C53.5746 17.1467 51.2045 17.198 48.9668 18.65C48.121 19.1994 46.9217 20.0325 45.6361 20.9473L36.33 12.836C35.3321 11.7886 33.9903 11.1821 32.5421 11.1257C31.0544 11.0704 29.6534 11.5889 28.5687 12.5919C27.7687 13.3318 27.2492 14.258 26.9912 15.2421C24.9917 14.2479 22.5048 14.5128 20.7714 16.1158C19.4181 17.3673 18.8466 19.1422 19.0511 20.8455C17.7494 20.8752 16.4527 21.338 15.4235 22.2893C14.3381 23.2928 13.7092 24.6588 13.6509 26.1353C13.6033 27.3583 13.9718 28.5241 14.6629 29.5091C13.814 29.7312 13.0191 30.1364 12.3563 30.7486C11.2951 31.7304 10.6794 33.0662 10.6229 34.5106C10.5665 35.9549 11.0758 37.3352 12.0258 38.3612L27.2167 55.8792C26.9852 56.1192 26.7609 56.3654 26.5102 56.5891L5.05664 75.744L7.36594 77.6368L28.4745 58.7892ZM30.5709 14.7574C31.0779 14.2889 31.7421 14.0551 32.426 14.0724C33.1157 14.0995 33.754 14.3932 34.2223 14.9002C34.2587 14.9389 34.2967 14.9758 34.3363 15.0108L43.1778 22.7171C41.3485 24.0488 39.6704 25.2987 38.8911 25.9034C38.6849 26.0632 38.4673 26.2772 38.2454 26.5147L30.4281 18.4088C29.4606 17.3625 29.5247 15.7247 30.5709 14.7574ZM22.7739 18.2814C23.8195 17.3141 25.4573 17.3768 26.4252 18.4242L27.753 19.8609C27.8157 19.9287 27.8967 19.963 27.9682 20.0162C28.0741 20.1551 28.1621 20.3027 28.2831 20.4336L36.4682 28.9212C35.5443 30.3957 34.6111 32.186 33.7952 34.0056L23.2427 22.5948C23.1031 22.4439 22.9425 22.3273 22.7907 22.1956C22.7384 22.1071 22.7034 22.0113 22.6308 21.9327C22.1618 21.4257 21.9188 20.7674 21.9458 20.0777C21.973 19.388 22.2669 18.7497 22.7739 18.2814ZM17.4258 24.4549C18.4713 23.4876 20.1105 23.5517 21.0771 24.5972L32.5635 37.0187C31.9982 38.5577 31.5792 39.9808 31.4051 41.072C31.3449 41.3035 31.2201 41.8676 31.1422 42.6752L20.0032 31.0476L17.2829 28.1055C16.8144 27.5985 16.5709 26.9402 16.5979 26.2505C16.625 25.5613 16.9187 24.9234 17.4258 24.4549ZM14.2227 36.3937C13.7763 35.9109 13.5445 35.2829 13.5701 34.6257C13.5961 33.9683 13.876 33.3611 14.3588 32.9147C14.8416 32.4682 15.4742 32.2349 16.1263 32.2618C16.7835 32.2876 17.391 32.5677 17.8551 33.0695L31.0989 46.8946C30.9568 49.283 30.2457 51.5347 29.0536 53.4957L14.2227 36.3937Z" fill="#57504C"/>
<path d="M26.3051 97.6656C25.7797 98.2878 25.858 99.2187 26.4802 99.7441C26.7573 99.9779 27.095 100.092 27.4313 100.092C27.8501 100.092 28.2673 99.9139 28.5587 99.5688L30.8348 96.8737L28.5529 95.0034L26.3051 97.6656Z" fill="#57504C"/>
<path d="M0.37462 81.9017C0.666018 82.2277 1.06983 82.3942 1.47548 82.3942C1.82516 82.3942 2.17599 82.2708 2.45702 82.0197L7.36565 77.637L5.05634 75.7441L0.492561 79.8189C-0.115114 80.3618 -0.167635 81.2941 0.37462 81.9017Z" fill="#57504C"/>
<path d="M75.1008 99.5692C75.3929 99.9143 75.8089 100.092 76.2284 100.092C76.5647 100.092 76.9024 99.9784 77.1795 99.7445C77.8017 99.2191 77.8801 98.288 77.3549 97.6661L74.9025 94.7622L72.4492 96.4293L75.1008 99.5692Z" fill="#57504C"/>
<path d="M101.202 82.0201C101.483 82.2712 101.834 82.3946 102.184 82.3946C102.589 82.3946 102.993 82.2281 103.285 81.9021C103.827 81.2945 103.774 80.3622 103.167 79.8195L100.456 77.3989L97.9404 79.1079L101.202 82.0201Z" fill="#57504C"/>
<path d="M50.7344 1.47496V11.4053C50.7344 12.2201 51.3946 12.8803 52.2093 12.8803C53.0239 12.8803 53.6841 12.2201 53.6841 11.4053V1.47496C53.6841 0.660196 53.0239 0 52.2093 0C51.3946 0 50.7344 0.660196 50.7344 1.47496Z" fill="#57504C"/>
<path d="M59.1017 3.28175L55.5621 12.0322C55.2568 12.7873 55.6208 13.647 56.3761 13.9522C56.5574 14.0255 56.7442 14.0605 56.9285 14.0605C57.5116 14.0605 58.0642 13.712 58.2964 13.1382L61.836 4.38768C62.1412 3.63235 61.7773 2.7729 61.0219 2.46745C60.2666 2.16292 59.4076 2.52688 59.1017 3.28175Z" fill="#57504C"/>
<path d="M43.3966 2.46748C42.6413 2.77293 42.2774 3.63238 42.5826 4.38772L46.1222 13.1382C46.3544 13.712 46.9063 14.0605 47.49 14.0605C47.6739 14.0605 47.8609 14.0253 48.0424 13.9523C48.7975 13.6468 49.1617 12.7874 48.8565 12.0323L45.3169 3.28178C45.0114 2.52737 44.1554 2.16272 43.3966 2.46748Z" fill="#57504C"/>
</svg>
