<svg width="100" height="100" viewBox="0 0 100 100" fill="none" xmlns="http://www.w3.org/2000/svg">
<path d="M92.1875 78.125C93.4307 78.125 94.623 77.6311 95.5021 76.7521C96.3811 75.873 96.875 74.6807 96.875 73.4375V57.8125H98.4375C98.8519 57.8125 99.2493 57.6479 99.5424 57.3549C99.8354 57.0618 100 56.6644 100 56.25V45.7266C99.9962 44.3782 99.6451 43.0536 98.9806 41.8804C98.3161 40.7071 97.3606 39.7248 96.2062 39.0281L84.375 31.9281V28.8437C84.6269 28.6168 84.8668 28.3769 85.0938 28.125H88.2812C89.3574 28.1264 90.4099 27.8098 91.3067 27.215C92.2035 26.6203 92.9046 25.7738 93.322 24.7819C93.7393 23.79 93.8542 22.6969 93.6524 21.6398C93.4506 20.5828 92.9409 19.609 92.1875 18.8406V9.375C92.185 6.88936 91.1965 4.50623 89.4389 2.74862C87.6813 0.990999 85.2981 0.00248192 82.8125 0L76.5625 0C75.1772 0.00133334 73.8316 0.462272 72.7364 1.31057C71.6413 2.15886 70.8586 3.34656 70.5109 4.6875H70.3125C68.6549 4.6875 67.0652 5.34598 65.8931 6.51808C64.721 7.69018 64.0625 9.2799 64.0625 10.9375V18.8406C63.3091 19.609 62.7994 20.5828 62.5976 21.6398C62.3958 22.6969 62.5107 23.79 62.9281 24.7819C63.3454 25.7738 64.0465 26.6203 64.9433 27.215C65.8401 27.8098 66.8926 28.1264 67.9688 28.125H71.1562C71.3832 28.3769 71.6231 28.6168 71.875 28.8437V31.9281L60.0438 39.0281C58.8894 39.7248 57.9339 40.7071 57.2694 41.8804C56.6049 43.0536 56.2538 44.3782 56.25 45.7266V56.25C56.25 56.6644 56.4146 57.0618 56.7076 57.3549C57.0007 57.6479 57.3981 57.8125 57.8125 57.8125H59.375V73.4375C59.375 74.6807 59.8689 75.873 60.7479 76.7521C61.627 77.6311 62.8193 78.125 64.0625 78.125H65.625V96.875H46.875V56.25H51.5625C51.855 56.2499 52.1416 56.1677 52.3896 56.0128C52.6377 55.8579 52.8373 55.6365 52.9658 55.3737C53.0942 55.111 53.1463 54.8174 53.1162 54.5265C53.0861 54.2356 52.9749 53.959 52.7953 53.7281L41.8578 39.6656C41.706 39.4868 41.5171 39.3432 41.3042 39.2446C41.0913 39.1461 40.8596 39.0951 40.625 39.0951C40.3904 39.0951 40.1587 39.1461 39.9458 39.2446C39.7329 39.3432 39.544 39.4868 39.3922 39.6656L28.4547 53.7281C28.2751 53.959 28.1639 54.2356 28.1338 54.5265C28.1037 54.8174 28.1558 55.111 28.2842 55.3737C28.4127 55.6365 28.6123 55.8579 28.8604 56.0128C29.1084 56.1677 29.395 56.2499 29.6875 56.25H34.375V96.875H21.875V76.5625H26.5625C26.855 76.5624 27.1416 76.4802 27.3896 76.3253C27.6377 76.1704 27.8373 75.949 27.9658 75.6862C28.0942 75.4235 28.1463 75.1299 28.1162 74.839C28.0861 74.5481 27.9749 74.2715 27.7953 74.0406L16.8578 59.9781C16.706 59.7993 16.5171 59.6557 16.3042 59.5571C16.0913 59.4586 15.8596 59.4076 15.625 59.4076C15.3904 59.4076 15.1587 59.4586 14.9458 59.5571C14.7329 59.6557 14.544 59.7993 14.3922 59.9781L3.45469 74.0406C3.27511 74.2715 3.16393 74.5481 3.13379 74.839C3.10366 75.1299 3.15578 75.4235 3.28423 75.6862C3.41268 75.949 3.6123 76.1704 3.86037 76.3253C4.10845 76.4802 4.39503 76.5624 4.6875 76.5625H9.375V96.875H1.5625C1.1481 96.875 0.750671 97.0396 0.457646 97.3326C0.16462 97.6257 0 98.0231 0 98.4375C0 98.8519 0.16462 99.2493 0.457646 99.5424C0.750671 99.8354 1.1481 100 1.5625 100H98.4375C98.8519 100 99.2493 99.8354 99.5424 99.5424C99.8354 99.2493 100 98.8519 100 98.4375C100 98.0231 99.8354 97.6257 99.5424 97.3326C99.2493 97.0396 98.8519 96.875 98.4375 96.875H90.625V78.125H92.1875ZM93.75 73.4375C93.75 73.8519 93.5854 74.2493 93.2924 74.5424C92.9993 74.8354 92.6019 75 92.1875 75H90.625V57.8125H93.75V73.4375ZM76.325 46.875H79.9187L81.3531 55.5906L78.125 57.5484L74.8906 55.5906L76.325 46.875ZM80.0563 43.75H76.1937L75.4266 40.9375L78.125 39.3219L80.8234 40.9375L80.0563 43.75ZM80.6438 37.1875L83.0547 34.7766L88.1062 37.8125L85.6953 40.2234L80.6438 37.1875ZM71.875 21.875V15.0703C75.886 16.4989 80.1174 17.2093 84.375 17.1688V21.875C84.375 23.5326 83.7165 25.1223 82.5444 26.2944C81.3723 27.4665 79.7826 28.125 78.125 28.125C76.4674 28.125 74.8777 27.4665 73.7056 26.2944C72.5335 25.1223 71.875 23.5326 71.875 21.875ZM88.2812 25H86.9531C87.3123 23.9972 87.4973 22.9402 87.5 21.875V20.3125H88.2812C88.9029 20.3125 89.499 20.5594 89.9385 20.999C90.3781 21.4385 90.625 22.0346 90.625 22.6562C90.625 23.2779 90.3781 23.874 89.9385 24.3135C89.499 24.7531 88.9029 25 88.2812 25ZM70.3125 7.8125H71.875C72.2894 7.8125 72.6868 7.64788 72.9799 7.35485C73.2729 7.06183 73.4375 6.6644 73.4375 6.25C73.4375 5.4212 73.7667 4.62634 74.3528 4.04029C74.9388 3.45424 75.7337 3.125 76.5625 3.125H82.8125C84.4701 3.125 86.0598 3.78348 87.2319 4.95558C88.404 6.12769 89.0625 7.7174 89.0625 9.375V17.2672C88.8044 17.2216 88.5433 17.195 88.2812 17.1875H87.5V15.625C87.5 15.2106 87.3354 14.8132 87.0424 14.5201C86.7493 14.2271 86.3519 14.0625 85.9375 14.0625C75.1 14.0625 71.3094 11.2953 71.2891 11.2797C71.0592 11.0957 70.7821 10.9803 70.4895 10.947C70.197 10.9136 69.901 10.9636 69.6357 11.0911C69.3703 11.2187 69.1464 11.4186 68.9897 11.6678C68.833 11.9171 68.7499 12.2056 68.75 12.5V17.1875H67.9688C67.7067 17.195 67.4456 17.2216 67.1875 17.2672V10.9375C67.1875 10.1087 67.5167 9.31384 68.1028 8.72779C68.6888 8.14174 69.4837 7.8125 70.3125 7.8125ZM67.9688 25C67.3471 25 66.751 24.7531 66.3115 24.3135C65.8719 23.874 65.625 23.2779 65.625 22.6562C65.625 22.0346 65.8719 21.4385 66.3115 20.999C66.751 20.5594 67.3471 20.3125 67.9688 20.3125H68.75V21.875C68.7527 22.9402 68.9377 23.9972 69.2969 25H67.9688ZM78.125 31.25C79.1902 31.2473 80.2472 31.0623 81.25 30.7031V32.1656L78.125 35.2906L75 32.1656V30.7031C76.0028 31.0623 77.0598 31.2473 78.125 31.25ZM73.1953 34.7797L75.6062 37.1875L70.5547 40.2172L68.1438 37.8125L73.1953 34.7797ZM59.375 45.7266C59.3775 44.9174 59.5883 44.1225 59.987 43.4184C60.3857 42.7143 60.959 42.1246 61.6516 41.7062L65.3828 39.4672L69.2078 43.2922C69.4543 43.5386 69.7762 43.6956 70.1222 43.738C70.4681 43.7805 70.8184 43.7061 71.1172 43.5266L72.6422 42.6109L73.4031 45.3953L71.6359 56.1266C71.5854 56.4342 71.628 56.7498 71.7584 57.033C71.8887 57.3162 72.1007 57.5539 72.3672 57.7156L77.3156 60.7109C77.5597 60.8588 77.8396 60.9369 78.125 60.9369C78.4104 60.9369 78.6903 60.8588 78.9344 60.7109L83.8828 57.7156C84.1493 57.5539 84.3613 57.3162 84.4916 57.033C84.622 56.7498 84.6646 56.4342 84.6141 56.1266L82.8531 45.4328C82.8637 45.3932 82.8721 45.353 82.8781 45.3125V45.2953L83.6109 42.6109L85.1359 43.5266C85.4347 43.7061 85.785 43.7805 86.131 43.738C86.477 43.6956 86.7988 43.5386 87.0453 43.2922L90.8703 39.4672L94.6016 41.7062C95.2936 42.125 95.8662 42.7148 96.2644 43.4189C96.6625 44.123 96.8728 44.9177 96.875 45.7266V54.6875H90.625V50C90.625 49.5856 90.4604 49.1882 90.1674 48.8951C89.8743 48.6021 89.4769 48.4375 89.0625 48.4375C88.6481 48.4375 88.2507 48.6021 87.9576 48.8951C87.6646 49.1882 87.5 49.5856 87.5 50V64.0625H68.75V50C68.75 49.5856 68.5854 49.1882 68.2924 48.8951C67.9993 48.6021 67.6019 48.4375 67.1875 48.4375C66.7731 48.4375 66.3757 48.6021 66.0826 48.8951C65.7896 49.1882 65.625 49.5856 65.625 50V54.6875H59.375V45.7266ZM64.0625 75C63.6481 75 63.2507 74.8354 62.9576 74.5424C62.6646 74.2493 62.5 73.8519 62.5 73.4375V57.8125H65.625V75H64.0625ZM12.5 96.875V75C12.5 74.5856 12.3354 74.1882 12.0424 73.8951C11.7493 73.6021 11.3519 73.4375 10.9375 73.4375H7.88281L15.625 63.4828L23.3672 73.4375H20.3125C19.8981 73.4375 19.5007 73.6021 19.2076 73.8951C18.9146 74.1882 18.75 74.5856 18.75 75V96.875H12.5ZM37.5 96.875V54.6875C37.5 54.2731 37.3354 53.8757 37.0424 53.5826C36.7493 53.2896 36.3519 53.125 35.9375 53.125H32.8828L40.625 43.1703L48.3672 53.125H45.3125C44.8981 53.125 44.5007 53.2896 44.2076 53.5826C43.9146 53.8757 43.75 54.2731 43.75 54.6875V96.875H37.5ZM79.6875 96.875V75C79.6875 74.5856 79.5229 74.1882 79.2299 73.8951C78.9368 73.6021 78.5394 73.4375 78.125 73.4375C77.7106 73.4375 77.3132 73.6021 77.0201 73.8951C76.7271 74.1882 76.5625 74.5856 76.5625 75V96.875H68.75V67.1875H87.5V96.875H79.6875Z" fill="#57504C"/>
</svg>
