<svg width="20" height="16" viewBox="0 0 20 16" fill="none" xmlns="http://www.w3.org/2000/svg">
<path d="M18.2566 1.05338L1.5994 6.89037C0.693362 7.13761 0.716594 7.96533 1.39031 8.16957L5.56041 9.37351L7.16341 13.9098C7.36088 14.4043 7.51188 14.5978 7.84874 14.5978C8.19722 14.5978 8.32499 14.4795 8.6967 14.1893C9.11487 13.8238 9.76536 13.2433 10.7876 12.3189L15.1319 15.2857C15.9334 15.6942 16.5026 15.4792 16.7117 14.5978L19.4298 2.12834C19.7086 1.05338 19.0232 0.730899 18.2566 1.05338ZM6.22252 9.09402L15.7127 3.57952C16.1773 3.28928 16.3283 3.61177 16.1192 3.83751L8.24368 10.3947L7.83713 13.6733L6.22252 9.09402Z" fill="#FFFDF8"/>
</svg>
