<svg width="21" height="16" viewBox="0 0 21 16" fill="none" xmlns="http://www.w3.org/2000/svg">
<path d="M19.9443 3.23434C19.7455 2.28717 19.0169 1.61063 18.1558 1.34001C16.6323 0.934082 10.2734 0.934082 10.2734 0.934082C10.2734 0.934082 3.98069 0.934082 2.39096 1.34001C1.52986 1.61063 0.867467 2.28717 0.602511 3.23434C0.205078 4.79039 0.205078 8.17312 0.205078 8.17312C0.205078 8.17312 0.205078 11.5559 0.602511 13.1796C0.867467 14.0591 1.52986 14.8033 2.39096 15.0062C3.98069 15.4122 10.2734 15.4122 10.2734 15.4122C10.2734 15.4122 16.5661 15.4122 18.1558 15.0062C19.0169 14.7356 19.6793 14.0591 19.9443 13.1796C20.3417 11.5559 20.3417 8.17312 20.3417 8.17312C20.3417 8.17312 20.4079 4.79039 19.9443 3.23434Z" fill="#FFFDF8"/>
<path d="M8.2207 11.285V5.12842L13.5198 8.17287L8.2207 11.285Z" fill="#2C2927"/>
</svg>
