<svg width="24" height="14" viewBox="0 0 24 14" fill="none" xmlns="http://www.w3.org/2000/svg">
<path fill-rule="evenodd" clip-rule="evenodd" d="M11.6972 13.4131H13.0039C13.0039 13.4131 13.4216 13.3488 13.6251 13.1346C13.8286 12.9311 13.8286 12.5884 13.8286 12.5884C13.8286 12.5884 13.8286 10.7997 14.6533 10.5212C15.478 10.2427 16.5063 12.2456 17.6095 12.9954C18.4342 13.5416 19.0554 13.4773 19.0554 13.4773L22.0115 13.4131C22.0115 13.4131 23.5967 13.3488 22.8362 12.1064C22.772 11.9672 22.4185 11.2067 20.6298 9.55726C18.7769 7.83286 19.0447 8.11133 21.2511 5.1552C22.622 3.30227 23.179 2.19907 22.9755 1.7171C22.8362 1.23512 21.808 1.37436 21.808 1.37436H18.4342C18.4342 1.37436 18.1557 1.31009 18.0165 1.43862C17.813 1.57786 17.738 1.78136 17.738 1.78136C17.738 1.78136 17.1917 3.15232 16.4956 4.39475C14.9854 6.94387 14.4284 7.08311 14.1606 6.8689C13.6144 6.52616 13.7429 5.42297 13.7429 4.59825C13.7429 2.1241 14.0857 1.16015 13.0574 0.88167C12.7147 0.817406 12.4362 0.742432 11.4723 0.742432C10.3048 0.742432 9.26589 0.742432 8.71965 1.02091C8.30194 1.22441 8.03417 1.64212 8.23768 1.64212C8.44118 1.70639 8.92315 1.78136 9.20163 2.1241C9.54437 2.60608 9.54437 3.6343 9.54437 3.6343C9.54437 3.6343 9.74787 6.52616 9.06239 6.8689C8.58042 7.14738 7.9592 6.59043 6.65251 4.31978C5.96703 3.15232 5.48505 1.84562 5.48505 1.84562C5.48505 1.84562 5.34581 1.56715 5.20657 1.50288C5.01378 1.37436 4.74602 1.29938 4.74602 1.29938H1.57568C1.57568 1.29938 1.0937 1.29938 0.954462 1.50288C0.815224 1.70639 0.954462 2.04913 0.954462 2.04913C0.954462 2.04913 3.42861 7.89712 6.25621 10.789C8.80534 13.5523 11.6972 13.4131 11.6972 13.4131Z" fill="#FFFDF8"/>
</svg>
