<svg width="28" height="28" viewBox="0 0 28 28" fill="none" xmlns="http://www.w3.org/2000/svg">
<rect x="27" y="27" width="26" height="26" rx="13" transform="rotate(180 27 27)" stroke="#FFFDF8" stroke-width="2"/>
<path d="M13 19C13 19.5523 13.4477 20 14 20C14.5523 20 15 19.5523 15 19L13 19ZM14.7071 7.29289C14.3166 6.90237 13.6834 6.90237 13.2929 7.29289L6.92893 13.6569C6.53841 14.0474 6.53841 14.6805 6.92893 15.0711C7.31946 15.4616 7.95262 15.4616 8.34315 15.0711L14 9.41421L19.6569 15.0711C20.0474 15.4616 20.6805 15.4616 21.0711 15.0711C21.4616 14.6805 21.4616 14.0474 21.0711 13.6569L14.7071 7.29289ZM15 19L15 8L13 8L13 19L15 19Z" fill="#FFFDF8"/>
</svg>
